<svg xmlns="http://www.w3.org/2000/svg" width="85.718" height="122.531" viewBox="0 0 85.718 122.531">
  <g id="babysitting" transform="translate(-64.593)">
    <path id="Path_235" data-name="Path 235" d="M118.235,31.283a15.641,15.641,0,1,0-15.642-15.642A15.644,15.644,0,0,0,118.235,31.283Z" transform="translate(-27.172 0)" fill="#fff"/>
    <path id="Path_236" data-name="Path 236" d="M95.744,117.932a13.247,13.247,0,0,0-9.365,0c-4.1,1.243-19.54,7.871-21.772,37.535a4.962,4.962,0,0,0,4.577,5.321q.19.015.378.015a4.964,4.964,0,0,0,4.944-4.592,54.7,54.7,0,0,1,3.323-15.938v15.28a13.267,13.267,0,0,0,.351,3.028v41.874a5.791,5.791,0,0,0,11.581,0v-31.73q.643.063,1.3.064t1.3-.064v31.73a5.79,5.79,0,1,0,11.58,0V158.577a13.271,13.271,0,0,0,.351-3.024V140.272a54.7,54.7,0,0,1,3.322,15.94,4.964,4.964,0,0,0,4.945,4.592q.187,0,.377-.015a4.963,4.963,0,0,0,4.577-5.321C115.289,125.791,99.834,119.171,95.744,117.932Z" transform="translate(0 -83.715)" fill="#fff"/>
    <path id="Path_237" data-name="Path 237" d="M284.087,208.216a9.625,9.625,0,1,0-9.626-9.626A9.627,9.627,0,0,0,284.087,208.216Z" transform="translate(-150.065 -135.119)" fill="#fff"/>
    <path id="Path_238" data-name="Path 238" d="M283.646,284.633c-1.372-18.244-10.866-22.328-13.393-23.1a8.141,8.141,0,0,0-5.772,0c-2.523.765-12.023,4.844-13.4,23.1a3.053,3.053,0,0,0,2.816,3.275c.078.006.155.009.233.009a3.054,3.054,0,0,0,3.043-2.825,33.627,33.627,0,0,1,2.045-9.81v6.805a8.138,8.138,0,0,0,.215,1.858v20.562a3.563,3.563,0,0,0,7.127,0V290.192a8.043,8.043,0,0,0,1.6,0v14.315a3.563,3.563,0,0,0,7.126,0V283.949a8.142,8.142,0,0,0,.216-1.862v-6.774a33.5,33.5,0,0,1,2.045,9.779,3.055,3.055,0,0,0,3.043,2.825c.076,0,.154,0,.232-.009A3.055,3.055,0,0,0,283.646,284.633Z" transform="translate(-133.343 -186.633)" fill="#fff"/>
  </g>
</svg>
