<svg xmlns="http://www.w3.org/2000/svg" width="111.957" height="111.542" viewBox="0 0 111.957 111.542">
  <g id="bath" transform="translate(0 -0.949)">
    <g id="Group_16102" data-name="Group 16102" transform="translate(0 56.512)">
      <g id="Group_16101" data-name="Group 16101">
        <path id="Path_239" data-name="Path 239" d="M104.959,255.051H7a7,7,0,1,0,0,13.995h97.962a7,7,0,1,0,0-13.995Z" transform="translate(0 -255.051)" fill="#fff"/>
      </g>
    </g>
    <g id="Group_16104" data-name="Group 16104" transform="translate(4.663 65.84)">
      <g id="Group_16103" data-name="Group 16103">
        <path id="Path_240" data-name="Path 240" d="M122.263,297.8a2.318,2.318,0,0,0-2.883,1.6l-.182.639H26.083L25.9,299.4a2.331,2.331,0,1,0-4.483,1.278l6.428,22.5a16.4,16.4,0,0,0,15.7,11.844h58.194a16.392,16.392,0,0,0,15.7-11.844l6.428-22.5A2.327,2.327,0,0,0,122.263,297.8ZM43.544,325.7a7.02,7.02,0,0,1-6.727-5.075L33.79,310.017a2.331,2.331,0,1,1,4.483-1.278L41.3,319.346a2.353,2.353,0,0,0,2.244,1.693,2.33,2.33,0,1,1,0,4.66Z" transform="translate(-21.323 -297.709)" fill="#fff"/>
      </g>
    </g>
    <g id="Group_16106" data-name="Group 16106" transform="translate(23.321 98.496)">
      <g id="Group_16105" data-name="Group 16105">
        <path id="Path_241" data-name="Path 241" d="M114.694,447.295a2.342,2.342,0,0,0-3.13,1.045l-4.665,9.33a2.334,2.334,0,1,0,4.175,2.085l4.665-9.33A2.337,2.337,0,0,0,114.694,447.295Z" transform="translate(-106.654 -447.053)" fill="#fff"/>
      </g>
    </g>
    <g id="Group_16108" data-name="Group 16108" transform="translate(79.304 98.497)">
      <g id="Group_16107" data-name="Group 16107">
        <path id="Path_242" data-name="Path 242" d="M371.76,457.676l-4.665-9.33a2.333,2.333,0,0,0-4.175,2.085l4.665,9.33a2.332,2.332,0,0,0,2.085,1.288,2.412,2.412,0,0,0,1.045-.243A2.337,2.337,0,0,0,371.76,457.676Z" transform="translate(-362.675 -447.055)" fill="#fff"/>
      </g>
    </g>
    <g id="Group_16110" data-name="Group 16110" transform="translate(79.306 0.949)">
      <g id="Group_16109" data-name="Group 16109">
        <path id="Path_243" data-name="Path 243" d="M377.071.949a8.857,8.857,0,0,0-6.3,2.612l-7.4,7.4a2.332,2.332,0,0,0,3.3,3.3l7.4-7.4a4.262,4.262,0,0,1,7.272,3V58.844a2.335,2.335,0,0,0,4.67,0V9.859A8.924,8.924,0,0,0,377.071.949Z" transform="translate(-362.683 -0.949)" fill="#fff"/>
      </g>
    </g>
    <g id="Group_16112" data-name="Group 16112" transform="translate(65.305 7.947)">
      <g id="Group_16111" data-name="Group 16111">
        <path id="Path_244" data-name="Path 244" d="M318.969,38.3,314.3,33.637a2.311,2.311,0,0,0-2.029-.653L300.613,34.9a2.329,2.329,0,0,0-1.3,3.923l13.995,14.414a2.334,2.334,0,0,0,3.96-1.166L319.6,40.405A2.332,2.332,0,0,0,318.969,38.3Z" transform="translate(-298.656 -32.951)" fill="#fff"/>
      </g>
    </g>
    <g id="Group_16114" data-name="Group 16114" transform="translate(46.647 28.527)">
      <g id="Group_16113" data-name="Group 16113">
        <path id="Path_245" data-name="Path 245" d="M221.973,127.749a2.334,2.334,0,0,0-3.3,0l-4.665,4.665a2.332,2.332,0,0,0,3.3,3.3l4.665-4.665A2.334,2.334,0,0,0,221.973,127.749Z" transform="translate(-213.328 -127.067)" fill="#fff"/>
      </g>
    </g>
    <g id="Group_16116" data-name="Group 16116" transform="translate(55.977 37.856)">
      <g id="Group_16115" data-name="Group 16115">
        <path id="Path_246" data-name="Path 246" d="M264.64,170.415a2.334,2.334,0,0,0-3.3,0l-4.665,4.665a2.332,2.332,0,0,0,3.3,3.3l4.665-4.665A2.334,2.334,0,0,0,264.64,170.415Z" transform="translate(-255.995 -169.733)" fill="#fff"/>
      </g>
    </g>
    <g id="Group_16118" data-name="Group 16118" transform="translate(60.642 23.862)">
      <g id="Group_16117" data-name="Group 16117">
        <path id="Path_247" data-name="Path 247" d="M285.973,106.415a2.334,2.334,0,0,0-3.3,0l-4.665,4.665a2.332,2.332,0,0,0,3.3,3.3l4.665-4.665A2.334,2.334,0,0,0,285.973,106.415Z" transform="translate(-277.328 -105.733)" fill="#fff"/>
      </g>
    </g>
  </g>
</svg>
