<svg id="Cooking" xmlns="http://www.w3.org/2000/svg" width="76.294" height="76.294" viewBox="0 0 76.294 76.294">
  <g id="Group_16100" data-name="Group 16100">
    <g id="Group_16099" data-name="Group 16099">
      <path id="Path_220" data-name="Path 220" d="M117.787,384h-52a1.735,1.735,0,0,0-1.734,1.732l-.007,5.056a7.076,7.076,0,0,0,7.075,7.083h41.33a7.082,7.082,0,0,0,7.075-7.075v-5.063A1.733,1.733,0,0,0,117.787,384Z" transform="translate(-53.631 -321.578)" fill="#fff"/>
      <path id="Path_221" data-name="Path 221" d="M57.22,6.936a17.975,17.975,0,0,0-3.307.322A20.791,20.791,0,0,0,17.34,20.807a1.734,1.734,0,1,1-3.468,0,23.949,23.949,0,0,1,2.567-10.795,1.734,1.734,0,0,0-1.971-2.459,19.026,19.026,0,0,0-4.023,35.453l-.019,14.212a1.732,1.732,0,0,0,1.734,1.736h52A1.733,1.733,0,0,0,65.89,57.22V42.981A19.063,19.063,0,0,0,57.22,6.936ZM25.376,48.158a1.737,1.737,0,0,1-2.442-.24c-.572-.7-5.595-6.951-5.595-11.5a1.734,1.734,0,0,1,3.468,0c0,2.51,2.95,7.037,4.809,9.3A1.737,1.737,0,0,1,25.376,48.158Zm14.5-1.341a1.734,1.734,0,1,1-3.468,0v-10.4a1.734,1.734,0,0,1,3.468,0v10.4Zm13.479,1.1a1.734,1.734,0,0,1-2.682-2.2c1.859-2.271,4.809-6.8,4.809-9.3a1.734,1.734,0,1,1,3.468,0C58.954,40.966,53.932,47.218,53.36,47.917Z" fill="#fff"/>
    </g>
  </g>
</svg>
