<svg xmlns="http://www.w3.org/2000/svg" width="103.389" height="101.38" viewBox="0 0 103.389 101.38">
  <g id="Dishes" transform="translate(0 -2.917)">
    <path id="Path_222" data-name="Path 222" d="M125.595,72.332a9.173,9.173,0,0,1-1.195-1.742,30.377,30.377,0,1,1-.767-7.114l2.753-20.467.062-.46a42.636,42.636,0,0,0-59.2-5.526V46.87a16.727,16.727,0,0,1-7.75,14.1V95.437a42.671,42.671,0,0,0,70.151-1.651V75.01A9.147,9.147,0,0,1,125.595,72.332Z" transform="translate(-39.006 -16.169)" fill="#fff"/>
    <path id="Path_223" data-name="Path 223" d="M111.637,78.318a25.235,25.235,0,1,0,25.235,25.235A25.264,25.264,0,0,0,111.637,78.318Z" transform="translate(-56.642 -49.43)" fill="#fff"/>
    <path id="Path_224" data-name="Path 224" d="M273.606,6.9a3.981,3.981,0,0,0-7.927-.531l-5.818,43.244a3.981,3.981,0,0,0,3.946,4.512h2.336v46.385a3.789,3.789,0,0,0,7.578,0Z" transform="translate(-170.331)" fill="#fff"/>
    <path id="Path_225" data-name="Path 225" d="M23.078,12a2.583,2.583,0,1,0-5.167,0V26.294H14.122V12a2.583,2.583,0,0,0-5.167,0V26.294H5.167V12A2.583,2.583,0,0,0,0,12V35.307A11.557,11.557,0,0,0,7.75,46.2V104.77a3.789,3.789,0,1,0,7.578,0V46.2a11.557,11.557,0,0,0,7.75-10.9Z" transform="translate(0 -4.261)" fill="#fff"/>
  </g>
</svg>
