<svg xmlns="http://www.w3.org/2000/svg" width="74.585" height="94.898" viewBox="0 0 74.585 94.898">
  <g id="Garbage" transform="translate(-54.798)">
    <path id="Path_226" data-name="Path 226" d="M126.593,26.875a2.777,2.777,0,0,0,2.587-3.8,17.635,17.635,0,0,0-16.331-11.026h-3.413A14.762,14.762,0,0,0,95.056,0H89.125a14.763,14.763,0,0,0-14.38,12.048H71.331A17.635,17.635,0,0,0,55,23.073a2.777,2.777,0,0,0,2.587,3.8ZM89.125,5.56h5.931a9.121,9.121,0,0,1,8.665,6.487H80.46A9.121,9.121,0,0,1,89.125,5.56Z" fill="#fff"/>
    <path id="Path_227" data-name="Path 227" d="M93.927,229.714a8.37,8.37,0,0,0,8.32,7.748h37.092a8.37,8.37,0,0,0,8.32-7.748l3.9-54.714H90.031Zm34.468-39.84a2.78,2.78,0,0,1,5.553.278l-1.483,29.656a2.78,2.78,0,0,1-5.554-.278Zm-18.121-2.638a2.781,2.781,0,0,1,2.916,2.638l1.483,29.656a2.78,2.78,0,0,1-5.554.278l-1.483-29.656A2.78,2.78,0,0,1,110.275,187.236Z" transform="translate(-28.703 -142.564)" fill="#fff"/>
  </g>
</svg>
