<svg id="gas-station" xmlns="http://www.w3.org/2000/svg" width="20.017" height="21.836" viewBox="0 0 20.017 21.836">
  <g id="Group_16091" data-name="Group 16091" transform="translate(0)">
    <path id="Path_215" data-name="Path 215" d="M35.131,5.132l.018-.018L30.63.607,29.344,1.892l2.56,2.56a3.028,3.028,0,0,0,1.08,5.859,3,3,0,0,0,1.213-.255V18.8a1.213,1.213,0,1,1-2.426,0V13.344a2.426,2.426,0,0,0-2.426-2.426H28.131V2.426A2.426,2.426,0,0,0,25.705,0H18.426A2.426,2.426,0,0,0,16,2.426v19.41H28.131v-9.1h1.82V18.8a3.033,3.033,0,1,0,6.066,0V7.279A3.046,3.046,0,0,0,35.131,5.132Zm-9.426,3.36H18.426V2.426h7.279Zm7.279,0A1.213,1.213,0,1,1,34.2,7.279,1.217,1.217,0,0,1,32.984,8.492Z" transform="translate(-16)" fill="#fff"/>
  </g>
</svg>
