<svg xmlns="http://www.w3.org/2000/svg" width="76.198" height="79.064" viewBox="0 0 76.198 79.064">
  <g id="Sweeping" transform="translate(0 0.001)">
    <path id="Path_77" data-name="Path 77" d="M283.288.244a2.309,2.309,0,0,0-3.094,1.028L259.159,43.378l-4.12-2.064A6.926,6.926,0,0,0,245.76,44.4l-1.031,2.059,24.727,12.385,1.031-2.06a6.913,6.913,0,0,0-3.085-9.276l-4.121-2.064L284.316,3.338A2.309,2.309,0,0,0,283.288.244Z" transform="translate(-208.361 -0.001)" fill="#fff"/>
    <ellipse id="Ellipse_1" data-name="Ellipse 1" cx="2" cy="2.5" rx="2" ry="2.5" transform="translate(23.199 74.063)" fill="#fff"/>
    <ellipse id="Ellipse_2" data-name="Ellipse 2" cx="2" cy="2.5" rx="2" ry="2.5" transform="translate(0.199 60.063)" fill="#fff"/>
    <circle id="Ellipse_3" data-name="Ellipse 3" cx="2" cy="2" r="2" transform="translate(9.199 65.063)" fill="#fff"/>
    <path id="Path_78" data-name="Path 78" d="M24.131,456.609H14.913a2.306,2.306,0,0,1-2.3-2.3A2.307,2.307,0,0,0,8,454.3a6.921,6.921,0,0,0,6.913,6.913h9.218a2.3,2.3,0,0,0,0-4.609Z" transform="translate(-8 -382.56)" fill="#fff"/>
    <path id="Path_79" data-name="Path 79" d="M97.517,337.706a2.305,2.305,0,0,0-.747,4.348l11.011,5.514a11.441,11.441,0,0,0,6.326,1.163,2.309,2.309,0,0,0,1.206,2.61l10.3,5.16a2.31,2.31,0,0,0,2.563-.338c.361-.321,8.209-7.383,12.8-15.166l-24.827-12.435C110.587,335.954,97.658,337.687,97.517,337.706Z" transform="translate(-82.057 -278.087)" fill="#fff"/>
  </g>
</svg>
