<svg xmlns="http://www.w3.org/2000/svg" width="101.044" height="95.275" viewBox="0 0 101.044 95.275">
  <g id="Vacuum" transform="translate(0 -14.76)">
    <path id="Path_228" data-name="Path 228" d="M89.793,18.257c-7.762-4.48-18.461-4.669-27.918-.492-8.75,3.867-15.058,12.387-18.786,18.79A3.728,3.728,0,0,0,39.766,43c-.34.757-.548,1.265-.626,1.463L21.031,84.241a3.732,3.732,0,0,0-3.218,6.734l.123.062L13.862,99.99H3.738a3.738,3.738,0,1,0,0,7.476H22.427a3.738,3.738,0,0,0,0-7.476h-.351L24.668,94.3a3.716,3.716,0,0,0,3.05-6.7L46.484,46.379a3.726,3.726,0,0,0,3.4-6.625C53.081,34.365,58.2,27.564,64.9,24.6c7.2-3.183,15.508-3.134,21.158.127a14.1,14.1,0,0,1,7.1,11.34c1.043,9.6.159,16.045-2.62,19.145a6.872,6.872,0,0,1-.826.762v8.367a14.709,14.709,0,0,0,6.39-4.137c4.321-4.813,5.788-12.972,4.489-24.943A21.755,21.755,0,0,0,89.793,18.257Z" fill="#fff"/>
    <path id="Path_229" data-name="Path 229" d="M263.794,232.108a16.1,16.1,0,0,1,6.822,1.523V204.074c0-2.065.2-1.869-1.869-1.869h-7.32c-2.065,0-22.894,1.714-28.4,28.912L229.5,253.6c0,2.065,1.673,4.672,3.738,4.672h17.738a16.208,16.208,0,0,1,12.819-26.165Z" transform="translate(-184.646 -150.807)" fill="#fff"/>
    <path id="Path_230" data-name="Path 230" d="M362.209,377.886a12.664,12.664,0,0,0-1.869-1.495,12.49,12.49,0,1,0,.9,20.27,12.571,12.571,0,0,0,2.639-2.82,12.434,12.434,0,0,0,.208-13.649A12.785,12.785,0,0,0,362.209,377.886Zm-8.691,2.693a6.268,6.268,0,1,1-6.268,6.268A6.269,6.269,0,0,1,353.518,380.579Z" transform="translate(-274.37 -289.311)" fill="#fff"/>
  </g>
</svg>
