<svg xmlns="http://www.w3.org/2000/svg" width="75.187" height="96.239" viewBox="0 0 75.187 96.239">
  <g id="Washing_Machine" data-name="Washing Machine" transform="translate(-56)">
    <path id="Path_231" data-name="Path 231" d="M122.164,0H65.022A9.022,9.022,0,0,0,56,9.022V17.1a.94.94,0,0,0,.94.94h73.307a.94.94,0,0,0,.94-.94V9.022A9.022,9.022,0,0,0,122.164,0ZM105.623,12.03h-1.5a3.007,3.007,0,0,1,0-6.015h1.5a3.007,3.007,0,0,1,0,6.015Zm12.03,0h-1.5a3.007,3.007,0,0,1,0-6.015h1.5a3.007,3.007,0,1,1,0,6.015Z" fill="#fff"/>
    <path id="Path_232" data-name="Path 232" d="M56,128.94v68.232a3.007,3.007,0,0,0,3.007,3.007h69.172a3.007,3.007,0,0,0,3.007-3.007V128.94a.94.94,0,0,0-.94-.94H56.94A.94.94,0,0,0,56,128.94Zm37.593,8.083a24.06,24.06,0,1,1-24.06,24.058A24.087,24.087,0,0,1,93.593,137.022Z" transform="translate(0 -103.94)" fill="#fff"/>
    <path id="Path_233" data-name="Path 233" d="M178.918,323.864a18.075,18.075,0,0,0,16.968-11.9.94.94,0,0,0-1.1-1.237,25.127,25.127,0,0,1-5.768.71c-11.472,0-14.29-8.346-27.313-3.879a.94.94,0,0,0-.624,1.03,18.072,18.072,0,0,0,17.832,15.279Z" transform="translate(-85.325 -248.677)" fill="#fff"/>
    <path id="Path_234" data-name="Path 234" d="M183.633,223.28c4.512,1.933,8.471,3.626,16.024,1.029a.941.941,0,0,0,.623-1.03,18.046,18.046,0,0,0-34.8-3.379.941.941,0,0,0,1.1,1.236c7.785-1.826,12.654.259,17.051,2.144Z" transform="translate(-88.855 -168.903)" fill="#fff"/>
  </g>
</svg>
