<svg xmlns="http://www.w3.org/2000/svg" width="490.645" height="489.731" viewBox="0 0 490.645 489.731">
  <g id="Group_16096" data-name="Group 16096" transform="translate(78 -358)">
    <g id="Group_16081" data-name="Group 16081" transform="translate(-87.953 326.822)">
      <circle id="Ellipse_9" data-name="Ellipse 9" cx="22.138" cy="22.138" r="22.138" transform="translate(204.991 32.947) rotate(-2.29)" fill="#b3d2ff" opacity="0.49"/>
      <circle id="Ellipse_10" data-name="Ellipse 10" cx="15.332" cy="15.332" r="15.332" transform="translate(9.953 369.361)" fill="#b3d2ff" opacity="0.49"/>
      <circle id="Ellipse_11" data-name="Ellipse 11" cx="7.666" cy="7.666" r="7.666" transform="matrix(0.989, -0.147, 0.147, 0.989, 47.844, 408.747)" fill="#b3d2ff" opacity="0.49"/>
      <path id="Path_211" data-name="Path 211" d="M302.872,84.253a3.833,3.833,0,1,0-3.832-3.832A3.833,3.833,0,0,0,302.872,84.253Z" transform="translate(-26.182 -4.113)" fill="#b3d2ff" opacity="0.49"/>
      <path id="Path_212" data-name="Path 212" d="M400.349,166.477a70.179,70.179,0,0,0-138.177-17.352,159.738,159.738,0,0,0-118.96-12.882,63.02,63.02,0,1,0-64.1,35.925,159.177,159.177,0,1,0,257.854,64.148A70.175,70.175,0,0,0,400.349,166.477Z" transform="translate(-1.192 -1.391)" fill="#b3d2ff" opacity="0.49"/>
    </g>
    <g id="Group_16078" data-name="Group 16078" transform="translate(-58.986 451.115)">
      <g id="Group_16046" data-name="Group 16046" transform="translate(29.483 83.088)">
        <g id="Group_16011" data-name="Group 16011" transform="translate(68.136 66.062)">
          <path id="Path_80" data-name="Path 80" d="M179.143,195.3s19.293,1.487,27.309,1.894,11.4-.136,12.073-.947,1.758-5.234,4.462-3.361-.947,7.012-.947,7.012a36.426,36.426,0,0,0,5.951,0c3.245-.271,4.263,2.975,1.117,4.462,0,0,2.2.811,0,3.11,0,0,1.046,1.758-1.793,2.84,0,0,1.487,2.029-4.868,2.434s-33.268-.27-45.3-3.38C177.145,209.36,176.139,201.787,179.143,195.3Z" transform="translate(-142.466 -186.57)" fill="#ffbd8b"/>
          <g id="Group_16010" data-name="Group 16010" transform="translate(78.293 17.787)">
            <path id="Path_81" data-name="Path 81" d="M248.293,209.551a36.886,36.886,0,0,1-8.058,0" transform="translate(-239.942 -209.551)" fill="none" stroke="#000" stroke-linecap="round" stroke-linejoin="round" stroke-width="0.953"/>
            <path id="Path_82" data-name="Path 82" d="M248.165,214.015a39.549,39.549,0,0,1-8.35,0" transform="translate(-239.815 -210.905)" fill="none" stroke="#000" stroke-linecap="round" stroke-linejoin="round" stroke-width="0.953"/>
            <path id="Path_83" data-name="Path 83" d="M246.372,218.091a22.8,22.8,0,0,1-6.557,0" transform="translate(-239.815 -212.141)" fill="none" stroke="#000" stroke-linecap="round" stroke-linejoin="round" stroke-width="0.953"/>
          </g>
          <path id="Path_84" data-name="Path 84" d="M128,192.933c4.1-12.447,13.449-7.493,22.411-8.506,10.454-1.182,11.8.374,13.711,2.654s2.224,16.888,1.235,21.623-19.461,4.251-27.084,2.468C128.507,208.889,126.208,198.358,128,192.933Z" transform="translate(-127.44 -184.021)" fill="#266dd3" stroke="#35140c" stroke-linecap="round" stroke-linejoin="round" stroke-width="2"/>
        </g>
        <g id="Group_16045" data-name="Group 16045" transform="translate(0 0)">
          <g id="Group_16014" data-name="Group 16014" transform="translate(124.396 123.239)">
            <path id="Path_85" data-name="Path 85" d="M565.847,319.136s28.786-1.873,40.461,5.788c0,0-38.8,58.695-75.44,64.053S545.943,326.31,565.847,319.136Z" transform="translate(-302.174 -282.115)" fill="#751034"/>
            <path id="Path_86" data-name="Path 86" d="M461.3,360c9.838,5.727,21.131-27.743,38.619-42.89s36.438-15.829,42.994,0-10.2,29.039-41.169,47.209-47.007,34.021-39.357,40.667a9.261,9.261,0,0,0,4.682,2.174c6.96,1.171,15.021-4.02,19.731,6.3,5.831,12.75-25.138,42.632-51.738,41.9s-32.425-19.125-76.883-50.373-65.714-38.528-65.714-38.528l-1.171-28.036L290,307.6l-1.331-31.819s44.36.411,99.017,4.006,159.234-15.147,161.422-13.614-11.663,4.006-40.814,26.635S451.458,354.269,461.3,360Z" transform="translate(-232.598 -266.087)" fill="#4387e8" stroke="#35140c" stroke-linecap="round" stroke-linejoin="round" stroke-width="2"/>
            <g id="Group_16013" data-name="Group 16013" transform="translate(0 39.189)">
              <g id="Group_16012" data-name="Group 16012">
                <path id="Path_87" data-name="Path 87" d="M477.331,381.382c-30.976,18.17-47.007,34.021-39.357,40.667a9.261,9.261,0,0,0,4.682,2.174c-31.652,2.648-47.683-8.967-88.845-31.394-39.657-21.6-83.731-36.292-86.929-37.344l-.188-.063-58.5-33.087,56.072,2.153c.439.056.885.111,1.331.174,72.187,9.176,156.441,49.759,171.295,52.4,9.838,5.727,21.131-27.743,38.619-42.89s36.438-15.829,42.994,0S508.3,363.211,477.331,381.382Z" transform="translate(-208.19 -322.335)" fill="#266dd3" stroke="#35140c" stroke-linecap="round" stroke-linejoin="round" stroke-width="2"/>
              </g>
            </g>
            <path id="Path_88" data-name="Path 88" d="M378.99,286.225s9.477-1.5,36.862,2.227,99.2-5.122,123.076-9.8a605.755,605.755,0,0,1-75.2,12.7C424.507,295.438,387.556,286.691,378.99,286.225Z" transform="translate(-259.991 -269.898)" fill="#fff"/>
            <path id="Path_89" data-name="Path 89" d="M530.629,360.068s12.849-28.861,44.259-52.775C574.888,307.293,542.408,327.537,530.629,360.068Z" transform="translate(-305.981 -278.584)" fill="#fff"/>
            <path id="Path_90" data-name="Path 90" d="M421.753,353.512s34.216,12.9,48.847,18.829,24.986,9.084,24.986,9.084-19.809-9.478-31.965-14.081S421.753,353.512,421.753,353.512Z" transform="translate(-272.96 -292.601)" fill="#fff"/>
          </g>
          <g id="Group_16025" data-name="Group 16025" transform="translate(0 123.239)">
            <g id="Group_16015" data-name="Group 16015" transform="translate(0 0.263)">
              <path id="Path_91" data-name="Path 91" d="M106,266.465c-16.367.812-60.743,2.829-73.491,24.576s17.64,54.967,79.344,49.9c0,0-2.621-27.359-4.551-46.63S106,266.465,106,266.465Z" transform="translate(-29.644 -266.465)" fill="#434168" stroke="#35140c" stroke-linecap="round" stroke-linejoin="round" stroke-width="2"/>
            </g>
            <g id="Group_16016" data-name="Group 16016" transform="translate(75.727)">
              <path id="Path_92" data-name="Path 92" d="M262.854,361.438c-7.469,29.868-11.454,42.319-11.454,42.319a70.37,70.37,0,0,1-1.742,16.178,37.586,37.586,0,0,1-.251,9.12h-96.83s-.745-3.393.5-14.345c0,0-3.24-12.945-1.993-19.417,0,0-7.469-34.348-9.956-68.2s-3.588-58-2.167-60.74c0,0,24.357-1.742,65.659,3.734s66.446,9.636,69.679,13.029S270.316,331.57,262.854,361.438Z" transform="translate(-138.335 -266.087)" fill="#434168"/>
              <path id="Path_93" data-name="Path 93" d="M268.047,338.078c-1.623,8.138-3.4,16.187-5.193,23.36-7.469,29.868-11.454,42.319-11.454,42.319a70.37,70.37,0,0,1-1.742,16.178,37.586,37.586,0,0,1-.251,9.12h-96.83s-.745-3.393.5-14.345c0,0-3.24-12.945-1.993-19.417,0,0-7.469-34.348-9.956-68.2s-3.588-58-2.167-60.74c0,0,24.357-1.742,65.659,3.734s66.446,9.636,69.679,13.029" transform="translate(-138.335 -266.087)" fill="none" stroke="#35140c" stroke-linecap="round" stroke-linejoin="round" stroke-width="2"/>
              <path id="Path_94" data-name="Path 94" d="M313,369.416s-1.932,24.328-15.07,61.6C297.932,431.017,309.582,380.241,313,369.416Z" transform="translate(-186.738 -297.425)" fill="#fff"/>
            </g>
            <g id="Group_16021" data-name="Group 16021" transform="translate(99.962 1.078)">
              <g id="Group_16017" data-name="Group 16017">
                <path id="Path_95" data-name="Path 95" d="M187.125,267.635s-12.2,7.171-14.005,34.412a74.379,74.379,0,0,1,18.686.9,102.824,102.824,0,0,0-16.435,8.555s23.864,40.974,35.8,76.095c0,0,3.8-31.057,3.589-47.272Z" transform="translate(-173.12 -267.635)" fill="#5e5e91" stroke="#35140c" stroke-linecap="round" stroke-linejoin="round" stroke-width="2"/>
                <path id="Path_96" data-name="Path 96" d="M256.4,276.708s10.056,6.929,15.009,30.793a95.3,95.3,0,0,0-15.984,3.152s9.276,2.026,14.769,6.979c0,0-28.5,50.43-42.461,72.718,0,0,3.576-36.236,3.589-47.272C231.318,343.077,253.094,306.476,256.4,276.708Z" transform="translate(-189.682 -270.387)" fill="#5e5e91" stroke="#35140c" stroke-linecap="round" stroke-linejoin="round" stroke-width="2"/>
              </g>
              <path id="Path_97" data-name="Path 97" d="M227.729,439.818s1.224,24.7,2.105,41.93" transform="translate(-189.682 -319.855)" fill="none" stroke="#1f1f38" stroke-linecap="round" stroke-linejoin="round" stroke-width="1"/>
              <path id="Path_98" data-name="Path 98" d="M237.9,388.031s21.7-36.192,30.466-53.583c0,0-3.754-2.435-8.892-5.211l6.389,5.211Z" transform="translate(-192.766 -286.318)" fill="#fff"/>
              <path id="Path_99" data-name="Path 99" d="M276.576,291.608c-.224-.484,5.279,5.666,6.852,18.1C283.428,309.708,279.938,298.848,276.576,291.608Z" transform="translate(-204.495 -274.897)" fill="#fff"/>
              <path id="Path_100" data-name="Path 100" d="M246.561,277.729a154.038,154.038,0,0,1-7.643,26.705,234.473,234.473,0,0,1-9.963,22.581v.007c-4.738,9.4-8.486,15.39-8.486,15.39-2.341-5.49-4.87-11.447-7.42-17.495-2.829-6.7-5.7-13.516-8.4-19.94-6.389-15.23-11.823-28.259-13.516-32.349-.341-.8-.53-1.261-.557-1.324.118.077.23.16.348.23,9.12,6.173,17.46,9.4,24.74,10.841.007,0,.014.007.021.007a45.27,45.27,0,0,0,25.36-1.888.026.026,0,0,1,.021-.007A27.541,27.541,0,0,0,246.561,277.729Z" transform="translate(-178.415 -268.748)" fill="#d0d9ff" stroke="#35140c" stroke-linecap="round" stroke-linejoin="round" stroke-width="2"/>
              <g id="Group_16018" data-name="Group 16018" transform="translate(33.524 12.435)">
                <path id="Path_101" data-name="Path 101" d="M231.158,309.038c3.093,0,9.916-8.948,9.916-11.146s-5.246-12.716-9.216-12.4-9.779,9.612-10.564,11.3S228.13,309.038,231.158,309.038Z" transform="translate(-221.237 -285.483)" fill="#2a3247" stroke="#35140c" stroke-linecap="round" stroke-linejoin="round" stroke-width="2"/>
                <path id="Path_102" data-name="Path 102" d="M238.736,340.044v.007c-4.738,9.4-8.486,15.39-8.486,15.39-2.341-5.49-4.87-11.447-7.42-17.495,1.7-8.089,4.828-22.595,5.518-23.159.961-.787,5.7-.6,6.459,0C235.35,315.213,237.545,330.7,238.736,340.044Z" transform="translate(-221.72 -294.212)" fill="#2a3247" stroke="#35140c" stroke-linecap="round" stroke-linejoin="round" stroke-width="2"/>
              </g>
              <path id="Path_103" data-name="Path 103" d="M241.768,301.446a33.683,33.683,0,0,1,2.043,3.426c.361.9-2.875,4.388-2.875,4.388a30.729,30.729,0,0,0,1.853-4.267A17.365,17.365,0,0,0,241.768,301.446Z" transform="translate(-193.688 -277.889)" fill="#fff"/>
              <path id="Path_104" data-name="Path 104" d="M238.833,320.253a87.583,87.583,0,0,1,2.894,20.2S239.42,323.438,238.833,320.253Z" transform="translate(-193.05 -283.593)" fill="#fff"/>
              <g id="Group_16020" data-name="Group 16020" transform="translate(12.374 1.965)">
                <g id="Group_16019" data-name="Group 16019">
                  <path id="Path_105" data-name="Path 105" d="M222.65,283.6c-4.584,6.9-13.962,16.979-17.906,21.117-6.389-15.23-11.823-28.259-13.516-32.349-.084-.432-.153-.8-.209-1.094-.091-.53-.139-.822-.139-.822,7.531,6.347,18.045,9.893,24.88,11.663.007,0,.014.007.021.007C219.877,283.184,222.65,283.6,222.65,283.6Z" transform="translate(-190.88 -270.455)" fill="#fff" stroke="#35140c" stroke-miterlimit="10" stroke-width="2"/>
                  <path id="Path_106" data-name="Path 106" d="M260.482,280.525a154.04,154.04,0,0,1-7.643,26.705c-8.388-8.319-16.359-20.574-16.359-20.574,8.625.16,14.638-1.589,18.491-3.365a.026.026,0,0,1,.021-.007A27.543,27.543,0,0,0,260.482,280.525Z" transform="translate(-204.71 -273.509)" fill="#fff" stroke="#35140c" stroke-miterlimit="10" stroke-width="2"/>
                </g>
              </g>
            </g>
            <g id="Group_16023" data-name="Group 16023" transform="translate(88.193 129.205)">
              <path id="Path_107" data-name="Path 107" d="M255.085,476.178s-34.606,10.973-96.579-5.225c0,0-3.24-12.945-1.993-19.417,0,0,47.85,15.537,100.313,8.465A70.37,70.37,0,0,1,255.085,476.178Z" transform="translate(-156.228 -451.535)" fill="#fff" stroke="#35140c" stroke-linecap="round" stroke-linejoin="round" stroke-width="2"/>
              <path id="Path_108" data-name="Path 108" d="M267.57,468.522s13.3.132,20.147-1.346a38.38,38.38,0,0,1-1.88,12.5,67.259,67.259,0,0,0-.269-9.809S274.823,470.54,267.57,468.522Z" transform="translate(-189.996 -456.279)" fill="#fff"/>
              <g id="Group_16022" data-name="Group 16022" transform="translate(29.95 0)">
                <path id="Path_109" data-name="Path 109" d="M222.143,485.043c-3.808,0-9.39-5.942-13.015-11.031-1.865-2.619-7.815-11.564-6.049-16.667s14.547-5.513,18.421-5.513c2.117,0,20.718.2,21.868,7.281.782,4.807-3.323,11.733-7.425,16.613-1.823,2.17-8.2,9.253-13.755,9.317Z" transform="translate(-202.755 -451.832)" fill="#35140c" stroke="#35140c" stroke-linecap="round" stroke-linejoin="round" stroke-width="2"/>
                <path id="Path_110" data-name="Path 110" d="M222.448,484.65c-3.316,0-8.641-5.393-12.447-10.739-3.743-5.257-7.275-12.23-5.958-16.034,1.288-3.719,10.02-5.045,17.763-5.045,7.463,0,20.322,1.411,21.18,6.7.745,4.579-3.452,11.509-7.27,16.053-3.658,4.352-9.055,9.019-13.231,9.068Z" transform="translate(-203.061 -452.135)" fill="#2a3247" stroke="#35140c" stroke-linecap="round" stroke-linejoin="round" stroke-width="1"/>
                <path id="Path_111" data-name="Path 111" d="M222.778,484.257c-5.672.066-20.079-19.194-17.776-25.848s36.377-5.971,37.6,1.536S230.231,484.169,222.778,484.257Z" transform="translate(-203.362 -452.439)" fill="#23123a" stroke="#35140c" stroke-linecap="round" stroke-linejoin="round" stroke-width="1"/>
                <path id="Path_114" data-name="Path 114" d="M230.751,454.829s12.4-.443,17.028,2.408,1.963,9.885-4.8,18.116c0,0,8.109-11.107,5.646-15.367S230.751,454.829,230.751,454.829Z" transform="translate(-211.246 -452.733)" fill="#fff"/>
                <g id="Group_16080" data-name="Group 16080" transform="translate(-156.374 -294.445)">
                  <path id="Path_71" data-name="Path 71" d="M255.346,304.889l.115.53c.041.12.044.247.073.369.038.469.087.937.085,1.408a1.22,1.22,0,0,0-.007.311.233.233,0,0,1-.023.143l-.139,1.055c-.03.1-.037.212-.075.313l-.031.139c-.029.053,0,.122-.049.17l-.035.164a1.08,1.08,0,0,1-.051.169c-.046.2-.141.381-.175.583a2.508,2.508,0,0,1-.163.42l0,0c-.039.051-.04.119-.078.17a12.271,12.271,0,0,1-1.549,2.609,16.03,16.03,0,0,1-1.432,1.614.325.325,0,0,0-.032.044,1.01,1.01,0,0,1-.257.246v0c-.035.072-.11.1-.166.144-.187.148-.372.3-.562.444a11.94,11.94,0,0,1-1.3.858,12.973,12.973,0,0,1-1.313.638.429.429,0,0,1-.081.018,1.612,1.612,0,0,0-.174.075l-.025.009c-.038.04-.1.022-.138.051a7.584,7.584,0,0,1-1.111.283c-.11.043-.233.028-.343.073-.269.03-.535.088-.808.093a.259.259,0,0,1-.1.01c-.307,0-.613-.019-.92.011a.42.42,0,0,1-.073.013,1.313,1.313,0,0,1-.269-.009,3.512,3.512,0,0,1-.508-.109l-.807-.177a.344.344,0,0,0-.125-.037.348.348,0,0,1-.128-.037l-.11-.032a.568.568,0,0,1-.141-.051c-.189-.07-.379-.138-.567-.213a.675.675,0,0,0-.157-.051,4.985,4.985,0,0,1-1.073-.552,8.473,8.473,0,0,1-1.576-1.273.762.762,0,0,1-.066-.072.271.271,0,0,0-.095-.094,7.72,7.72,0,0,1-1.184-1.569,5.51,5.51,0,0,1-.44-.971.351.351,0,0,0-.053-.152,5.229,5.229,0,0,1-.27-1.3,5.43,5.43,0,0,1,.1-1.631,5.868,5.868,0,0,1,.8-1.891,7.572,7.572,0,0,1,3.465-2.806.369.369,0,0,0,.179-.068.2.2,0,0,1,.053-.018.332.332,0,0,0,.117-.041.186.186,0,0,1,.034-.014.428.428,0,0,1,.148-.03,2.04,2.04,0,0,1,.205-.055c.233-.072.472-.121.71-.171.069-.047.154-.023.228-.048l.274-.036a1.123,1.123,0,0,1,.392-.032c.259,0,.518,0,.777,0a.847.847,0,0,1,.34.031,3.369,3.369,0,0,1,2.6,1.76c.033.045.047.1.076.145a.058.058,0,0,0,.006.023.852.852,0,0,1,.077.173l.092.329a2.348,2.348,0,0,1,.076.339v.192a2.014,2.014,0,0,0,0,.472,2.569,2.569,0,0,1-.361,1.208,2.887,2.887,0,0,1-1.391,1.226.7.7,0,0,1-.143.1.428.428,0,0,1-.076.016.571.571,0,0,0-.2.067.38.38,0,0,1-.079.019.756.756,0,0,0-.183.052,4.884,4.884,0,0,1-.8.112.555.555,0,0,1-.571-.4.874.874,0,0,1-.081-.307c-.028-.19-.047-.381-.077-.571a4.527,4.527,0,0,1-.008-.517c0-.332-.009-.665.005-1a1.986,1.986,0,0,0,.017-.7c-.007.027.015.081-.007.131-.092,0-.057-.087-.085-.13a2.247,2.247,0,0,0-.092-.451.26.26,0,0,0-.045-.151,1.506,1.506,0,0,0-.661-.8.229.229,0,0,0-.131-.046,1.561,1.561,0,0,0-.777,0,.535.535,0,0,0-.14.019.177.177,0,0,0-.1.039.2.2,0,0,1-.033.017.69.69,0,0,0-.167.073c-.064.023-.118.066-.181.089a.387.387,0,0,0-.1.049.613.613,0,0,0-.138.091c-.044.032-.088.063-.13.1a2.26,2.26,0,0,0-.855,1.4,5.1,5.1,0,0,0-.028,1.589c.042.392.136.774.209,1.16a.388.388,0,0,0,.043.183.434.434,0,0,1,.038.164.421.421,0,0,0,.047.176c.035.134.09.263.118.4a.253.253,0,0,0,.046.147.247.247,0,0,1,.037.112.247.247,0,0,0,.047.141.263.263,0,0,1,.038.109.363.363,0,0,0,.069.172.744.744,0,0,1,.086.173,2.868,2.868,0,0,0,.166.306,1.9,1.9,0,0,0,.942.871.281.281,0,0,0,.159.044,4.449,4.449,0,0,0,.972.135c.051,0,.128-.022.135.072a.746.746,0,0,1-.161.009,12.946,12.946,0,0,1,1.77,0c-.1,0-.194,0-.291-.007-.012-.082.056-.071.1-.073.444-.029.887-.075,1.326-.146.289-.046.57-.124.857-.18a.384.384,0,0,0,.189-.048c.37-.127.737-.265,1.094-.427a.34.34,0,0,0,.154-.069c.032-.019.062-.04.093-.06a1.057,1.057,0,0,1,.182-.089,2.684,2.684,0,0,0,.626-.415,5.36,5.36,0,0,0,1.61-2.139.464.464,0,0,0,.018-.067.917.917,0,0,1,.07-.149l.178-.579a.311.311,0,0,0,.038-.129.324.324,0,0,1,.037-.153l.009-.053a2.189,2.189,0,0,0,.074-.314c.046-.37.1-.739.119-1.112.006-.138,0-.276,0-.414-.065-.129.015-.268-.029-.4l-.008-.187c-.041-.082-.021-.174-.047-.258l-.038-.241c-.015-.042-.043-.081-.034-.129a.287.287,0,0,0-.039-.126l-.089-.25c-.03-.042-.026-.1-.054-.139a3.688,3.688,0,0,0-.6-1.035,1.228,1.228,0,0,1-.256-.314,4.368,4.368,0,0,0-.888-.775,7.915,7.915,0,0,0-.7-.417,1,1,0,0,0-.146-.076l-.047-.009c-.047-.028-.1-.045-.146-.075a7.817,7.817,0,0,0-.806-.284,5.283,5.283,0,0,0-1.081-.224,2.164,2.164,0,0,0-.5-.042.287.287,0,0,1-.2-.039l-.383-.048a2.211,2.211,0,0,1,.463-.025,2.683,2.683,0,0,0-.5.024.77.77,0,0,1-.1.011,10.367,10.367,0,0,0-1.886.125,4.155,4.155,0,0,1-.423.078,3.017,3.017,0,0,0-.613.115c-.195.038-.386.1-.579.145a2.061,2.061,0,0,0-.2.072l-.049.008a.386.386,0,0,1-.109.038.209.209,0,0,0-.144.039l-.75.259c-.053.035-.12.04-.172.076a9.119,9.119,0,0,0-.895.382c-.2.094-.4.2-.6.3-.027.021-.061.029-.087.051l-.028.029a1.645,1.645,0,0,1-.4.219c-.25.136-.5.277-.75.407a2.249,2.249,0,0,1-.7.241l-.041,0c-.346.028-.5-.169-.4-.5a4.846,4.846,0,0,1,.34-.706l.041-.084c.046-.017.045-.068.07-.1a.252.252,0,0,1,.02-.032,7.221,7.221,0,0,1,2.136-1.871,2.8,2.8,0,0,1,.532-.3.229.229,0,0,0,.094-.054.868.868,0,0,1,.161-.087.583.583,0,0,0,.142-.081c.022-.012.046-.015.069-.024a.948.948,0,0,0,.119-.043l.029,0c.051-.028.1-.049.154-.081h0c.05-.04.12-.039.169-.08l0,0c.056-.029.12-.044.173-.079.091,0,.158-.072.244-.09.053-.036.12-.04.172-.077.272-.1.544-.194.817-.288.143-.049.289-.091.434-.137a.35.35,0,0,1,.128-.037.333.333,0,0,0,.125-.038l.5-.139c.04-.034.081-.068.138-.035.164,0,.311-.081.473-.088.11-.041.23-.035.34-.074l1.2-.151c.083-.01.166-.016.249-.024a1.594,1.594,0,0,1,.426-.033,4.452,4.452,0,0,1,.623-.023c.317.016.635,0,.951.03a1.082,1.082,0,0,1,.343.027l.162.007a.5.5,0,0,0,.156.011c.028,0,.054.006.045.045a.457.457,0,0,1-.235-.006l0,.02c.092-.016.184.023.272-.029a1.265,1.265,0,0,1,.383.036,11.8,11.8,0,0,1,1.756.34c.05.038.114.032.17.052l.161.034c.053.037.121.037.175.072l.075.012c.054.033.119.041.173.075l.247.093a1.384,1.384,0,0,0,.147.072l.047.01c.048.025.1.053.145.075a7.871,7.871,0,0,1,1.428.868c.038.022.089.03.1.084a1.135,1.135,0,0,0,.3.457.29.29,0,0,0,.259.059c.033.008.068.013.079.054.154.187.311.372.461.561a6.719,6.719,0,0,1,.883,1.482c.03.067.058.135.087.2s.041.119.076.173l.178.579C255.333,304.77,255.317,304.836,255.346,304.889Z" transform="translate(-66.952 0)" fill="#4387e8"/>
                  <path id="Path_72" data-name="Path 72" d="M171.946,358.424a10.826,10.826,0,0,0,1.071.938,9.166,9.166,0,0,0,1.324.82,1.284,1.284,0,0,1,.305.159l-.051.005c-.147-.044-.305-.027-.452-.075-.657-.083-1.318-.121-1.979-.15a.678.678,0,0,1-.095-.017,1.1,1.1,0,0,1,.622.008c.163,0,.326,0,.489,0-.16,0-.321,0-.482,0a.408.408,0,0,0-.2-.042c-.353.007-.708-.015-1.06.025h-1.03c-.208-.021-.416,0-.623-.012-.035,0-.1.041-.1-.044.5-.02.992,0,1.488-.009-.624,0-1.248,0-1.871.016a1.725,1.725,0,0,1-.289.012c-.047,0-.514-.119-.54-.109a.149.149,0,0,1-.043.009,1.8,1.8,0,0,1-.307-.219c-.062-.128.011-.216.1-.285a.426.426,0,0,1,.2-.11,1.083,1.083,0,0,1,.125-.06,7.08,7.08,0,0,0,1.97-.367c.129-.071.278-.091.4-.169a.617.617,0,0,0,.248-.168.218.218,0,0,0,0-.311.765.765,0,0,0-.4-.266.477.477,0,0,1-.112-.072c-.114-.03-.231-.039-.346-.059a.321.321,0,0,1-.062-.012,2.66,2.66,0,0,0-.405-.1c-.291-.016-.581-.041-.87-.083.089-.081.2.009.273-.019a2.422,2.422,0,0,0-.6.01h-.605c-.227-.025-.454,0-.681-.012-.751-.037-1.5-.024-2.253-.029-.1,0-.2.057-.286-.033.028-.037.068-.02.1-.02h1.793c.044-.005.02-.033.028-.017s0,0-.008.007a.272.272,0,0,1-.122.008c-.58,0-1.161.01-1.741-.008a.192.192,0,0,0-.115.037.1.1,0,0,1-.1-.013l0-.008c-.065-.031-.14-.037-.2-.073a.333.333,0,0,1-.274-.275c-.019-.16.1-.247.221-.32.031-.032.08-.024.111-.055a3.391,3.391,0,0,1,.905-.182c.228-.034.455-.083.687-.1a1.867,1.867,0,0,1,.282-.048,8,8,0,0,0,1.576-.366,2.07,2.07,0,0,0,.906-.555,1.123,1.123,0,0,0,.163-.283c.039-.068.015-.152.053-.22a1.15,1.15,0,0,0-.084-.527c-.031-.045-.045-.1-.076-.145a2.292,2.292,0,0,0-1.221-.941c-.165-.07-.339-.118-.509-.176-.012-.031.02-.049.021-.076-.015-.043-.056-.048-.089-.058a.166.166,0,0,1-.138-.178c-.054.039,0,.143-.093.131-.058-.007-.082-.065-.129-.1.014.061.105.1.067.159s-.105-.021-.164-.009c-.028.006-.061-.018-.092-.028-.545-.108-1.1-.182-1.648-.237-.318-.031-.637-.049-.956-.074a.355.355,0,0,1-.163-.026c.067-.039.134-.009.226-.022-.182.008-.338-.01-.5.014-.516,0-1.031-.031-1.544-.076a1.056,1.056,0,0,1,.555,0,.341.341,0,0,0,.067.012,5.472,5.472,0,0,1,.7.018v-.019h-.687a3.316,3.316,0,0,0-.987-.017,3.89,3.89,0,0,1-.952-.1.408.408,0,0,1-.31-.317.135.135,0,0,1,0-.141.587.587,0,0,1,.544-.392,5.029,5.029,0,0,1,.827-.05,2.035,2.035,0,0,0,.61.007c.485-.034.971-.06,1.457-.048.1.005.171.117.285.089.008,0,.007,0-.006-.009-.049-.016-.139.007-.134-.059s.092-.037.143-.039c.174,0,.347,0,.518-.009-.122-.016-.255.05-.376-.025a2.219,2.219,0,0,1,.428-.03c.735-.043,1.471-.058,2.2-.137.148-.033.3-.044.447-.08.45-.044.895-.123,1.339-.206a.469.469,0,0,0,.244-.062c.1-.02.179-.075.274-.1a.2.2,0,0,1,.04,0c.142.025.168.175.266.249-.013-.159-.012-.159.19-.107-.059-.039-.14-.053-.168-.129a.193.193,0,0,1,.056-.214.968.968,0,0,0,.173-.2.25.25,0,0,0-.012-.309,1.367,1.367,0,0,0-.656-.354.393.393,0,0,0-.186-.04c-.317-.063-.639-.1-.958-.149-.148-.024-.3,0-.443-.027a.517.517,0,0,1-.174-.043c-.037-.047,0-.054.034-.056.068,0,.136,0,.186,0-.08.026-.195-.058-.277.058-.128-.011-.268.044-.379-.066.044-.037.093-.017.14-.019a2.574,2.574,0,0,0-.4.044,2.036,2.036,0,0,1-.453,0c-.166-.029-.334-.027-.5-.048-.053-.007-.111.006-.15-.046.063-.052.063-.052.259-.046a.988.988,0,0,0-.436.046.3.3,0,0,1-.064.012.329.329,0,0,1-.067,0,.824.824,0,0,1-.161-.065.786.786,0,0,1-.484-.3c-.066-.112-.112-.224,0-.335a.68.68,0,0,1,.559-.325c.169-.017.34,0,.511-.006a7.2,7.2,0,0,0,.786.012c.043,0,.09-.017.111,0h-.359c-.035,0-.074.019-.1-.019a3.1,3.1,0,0,1,.564-.035c.327-.013.653-.052.98-.039a3.288,3.288,0,0,0,.9-.012,3.142,3.142,0,0,1,.486-.005.434.434,0,0,0,.129-.01c.017-.011-.014-.021,0-.006s0,.011-.006.013a.27.27,0,0,1-.068,0,8.368,8.368,0,0,0-.927.041c-.053,0-.113.019-.157-.031.448-.043.9-.081,1.348-.079.109-.008.208.075.328.038a.663.663,0,0,1-.2-.042,8.407,8.407,0,0,1,1.043-.076,1.826,1.826,0,0,0,.351.006c.018-.012-.008-.029,0-.013s0,.011-.007.012a.245.245,0,0,1-.159-.012,3,3,0,0,1,.6-.068c.37-.02.736-.074,1.1-.1a.507.507,0,0,1,.259-.05.544.544,0,0,0,.192.014c.048,0,.107-.023.122.054a.158.158,0,0,1-.058.161c-.034.029-.093.015-.116.066a.173.173,0,0,0,.26-.14c.01-.059-.014-.121.014-.178l1.171-.136c.036-.013.082.017.111-.026l.18-.012c.039,0,.089-.041.1.035h0c-.038.016-.083.016-.114.049l-.049.01c-.057.029-.119.046-.174.078a7.873,7.873,0,0,0-2.276,1.42,6.687,6.687,0,0,0-1.329,1.626,5.842,5.842,0,0,0-.636,1.591,5.429,5.429,0,0,0-.123,1.6,6.249,6.249,0,0,0,.27,1.373c.032.041.03.1.054.14a7.261,7.261,0,0,0,1.574,2.482c.016.017.029.035.044.053A.991.991,0,0,1,171.946,358.424Z" transform="translate(0 -42.997)" fill="#fff"/>
                  <path id="Path_73" data-name="Path 73" d="M230.851,313.183l-.164.094c-.026.022-.06.03-.087.051a8.848,8.848,0,0,0-2.294,1.725c-.133.146-.253.3-.379.458-.065-.063-.009-.15-.046-.218a.17.17,0,0,0-.039-.068.825.825,0,0,0-.577-.365c-.283-.073-.573-.106-.859-.164a.144.144,0,0,1-.1-.239.5.5,0,0,1,.3-.183,8.013,8.013,0,0,1,.976-.21,7.141,7.141,0,0,1,.752-.127,3.18,3.18,0,0,0,.343-.075l.054-.01a1.369,1.369,0,0,1,.2-.05l.165-.033c.05-.037.117-.021.169-.051.371-.093.723-.242,1.084-.366.055-.031.118-.046.172-.078a1.7,1.7,0,0,1,.306-.114C230.85,313.147,230.853,313.162,230.851,313.183Z" transform="translate(-58.241 -12.314)" fill="#fff"/>
                  <path id="Path_74" data-name="Path 74" d="M201.569,322.024a2.979,2.979,0,0,1-.394-.123.439.439,0,0,1-.273-.465.451.451,0,0,1,.326-.389c.057-.028.116-.05.174-.074a2.654,2.654,0,0,1,1.382.078.71.71,0,0,1,.4.253.285.285,0,0,1-.025.25.978.978,0,0,1-.5.338.347.347,0,0,1-.128.038.32.32,0,0,0-.125.038l-.277.057A1.579,1.579,0,0,1,201.569,322.024Z" transform="translate(-35.816 -19.173)" fill="#fff"/>
                  <path id="Path_75" data-name="Path 75" d="M195.318,405.251c.086-.013.163.037.247.038.051.043.127.027.177.072a.377.377,0,0,1,.217.113c.106.086.1.217-.014.341a1.044,1.044,0,0,1-.582.3,2.059,2.059,0,0,1-.95.012c-.321-.077-.485-.34-.353-.6a.487.487,0,0,1,.334-.242.265.265,0,0,1,.16-.031C194.808,405.236,195.064,405.247,195.318,405.251Z" transform="translate(-29.731 -93.701)" fill="#fff"/>
                  <path id="Path_76" data-name="Path 76" d="M173.1,425.273a1.206,1.206,0,0,1,.441.107c.249.124.266.278.047.439a1.382,1.382,0,0,1-.782.236c-.1,0-.194,0-.291,0a.663.663,0,0,1-.283-.091c-.06-.077-.16-.121-.173-.237a.369.369,0,0,1,.272-.419,1.255,1.255,0,0,1,.147-.032A1.725,1.725,0,0,1,173.1,425.273Z" transform="translate(-10.323 -111.379)" fill="#fff"/>
                </g>
              </g>
            </g>
            <g id="Group_16024" data-name="Group 16024" transform="translate(184.655 17.026)">
              <path id="Path_120" data-name="Path 120" d="M314.989,446.614s-8,3.607-13.4,9.7-3.368,14.952-5.776,17.122,4.136,8.023,9.587,0-.257-1.632-.257-1.632.457,5.554-6.316,7.476-4.13,5.307,0,9.819,27.816,4.511,35.335-21.243Z" transform="translate(-294.68 -337.864)" fill="#ffbd8b" stroke="#35140c" stroke-linecap="round" stroke-linejoin="round" stroke-width="1.5"/>
              <path id="Path_121" data-name="Path 121" d="M325.6,290.525s22.6,12.876,40.643,34.673c16.383,19.787,26.232,28.943,9.4,59.038S338.613,426.1,338.613,426.1s-19.082-16.532-31.144-31.556c0,0,27.128-25.965,26.108-31.4s-7.4-12.934-14.107-18.294C319.47,344.844,326.448,312.734,325.6,290.525Z" transform="translate(-298.559 -290.525)" fill="#434168"/>
              <path id="Path_122" data-name="Path 122" d="M325.6,290.525s22.6,12.876,40.643,34.673c16.383,19.787,26.232,28.943,9.4,59.038S338.613,426.1,338.613,426.1s-19.082-16.532-31.144-31.556c0,0,27.128-25.965,26.108-31.4s-7.4-12.934-14.107-18.294" transform="translate(-298.559 -290.525)" fill="none" stroke="#35140c" stroke-linecap="round" stroke-linejoin="round" stroke-width="2"/>
              <path id="Path_123" data-name="Path 123" d="M367.819,325.4s24.219,20.342,29.918,35.763-11.682,41.064-11.682,41.064,12.771-26.446,9.688-38.413S367.819,325.4,367.819,325.4Z" transform="translate(-316.862 -301.102)" fill="#fff"/>
              <path id="Path_124" data-name="Path 124" d="M334.921,485.111s-4.559,12.74-21.085,15.7C313.836,500.814,327.8,494.481,334.921,485.111Z" transform="translate(-300.49 -349.54)" fill="#fff"/>
            </g>
          </g>
          <g id="Group_16044" data-name="Group 16044" transform="translate(94.314)">
            <g id="Group_16026" data-name="Group 16026" transform="translate(17.807 86.991)">
              <path id="Path_125" data-name="Path 125" d="M237.386,230.374s1.8,17.3,9.174,29.992c0,0-7.659,8.4-26.1,6.756a51.8,51.8,0,0,1-29.893-13.183,85.848,85.848,0,0,0,3.382-39.879S208.477,237.625,237.386,230.374Z" transform="translate(-190.571 -214.06)" fill="#ffbd8b" stroke="#35140c" stroke-linecap="round" stroke-linejoin="round" stroke-width="1.5"/>
              <path id="Path_126" data-name="Path 126" d="M254.92,247.1a64.741,64.741,0,0,0,7.018,21.985S251.709,263.375,254.92,247.1Z" transform="translate(-209.898 -224.081)" fill="#fff"/>
            </g>
            <g id="Group_16043" data-name="Group 16043">
              <g id="Group_16027" data-name="Group 16027" transform="translate(5.026)">
                <path id="Path_127" data-name="Path 127" d="M249.591,125.907c14.272-8.874,7.766-26.836-3.647-33.428s-21.925-2.966-20.623,8.4c0,0,.806,1.977-7.9.33-9.149-1.732-37.933-2.973-43.042,6.341s-.1,30.01,4.285,43.321c0,0,17.862,14.771,21.455-19.011a96.626,96.626,0,0,0,28.806,1.245C244.583,131.37,249.591,125.907,249.591,125.907Z" transform="translate(-172.227 -89.202)" fill="#87503d" stroke="#35140c" stroke-linecap="round" stroke-linejoin="round" stroke-width="2"/>
                <path id="Path_128" data-name="Path 128" d="M252.515,96.845s3.067-9.23,16.834-1.408,13.684,22.364,5.937,28.459c0,0,5.549-8.895.86-18.016S259.617,89.492,252.515,96.845Z" transform="translate(-196.577 -90.139)" fill="#fff"/>
                <path id="Path_129" data-name="Path 129" d="M240.235,144.981s18.362,1.751,28.838-5.565A121.451,121.451,0,0,1,240.235,144.981Z" transform="translate(-192.853 -104.431)" fill="#fff"/>
              </g>
              <g id="Group_16031" data-name="Group 16031" transform="translate(0 120.935)">
                <path id="Path_130" data-name="Path 130" d="M241.089,280.829s4.111,1.262,12.53-4.164,13.089-5.205,20.623-4.417c8.895.93,10.337,4.3,11.094,6.953,0,0-7.9-1.9-12.95-.391s-11.947,7.572-20.961,7.572H241.089Z" transform="translate(-188.086 -265.524)" fill="#266dd3" stroke="#35140c" stroke-linecap="round" stroke-linejoin="round" stroke-width="2"/>
                <path id="Path_131" data-name="Path 131" d="M214.806,278.6s-8.61,2-19-4.239-9.212-9.91-16.658-11.046-10.222-.488-14.134,2.027c0,0,2.048-.147,11.988,6.554s24.877,14.513,37.8,12.746Z" transform="translate(-165.013 -262.78)" fill="#266dd3" stroke="#35140c" stroke-linecap="round" stroke-linejoin="round" stroke-width="2"/>
                <path id="Path_132" data-name="Path 132" d="M268.86,276.141c-.8.051,12.2-3.727,21.452,1.357C290.312,277.5,278.585,275.52,268.86,276.141Z" transform="translate(-196.498 -266.437)" fill="#fff"/>
                <path id="Path_133" data-name="Path 133" d="M180.642,266.05a10.172,10.172,0,0,1,5.945,1.079c3.462,1.616,12.222,11.631,22.338,13.743,0,0-9-1.6-15.413-6.526S184.466,266.984,180.642,266.05Z" transform="translate(-169.753 -263.746)" fill="#fff"/>
                <g id="Group_16030" data-name="Group 16030" transform="translate(36.763 13.961)">
                  <g id="Group_16028" data-name="Group 16028" transform="translate(0 2.203)">
                    <path id="Path_134" data-name="Path 134" d="M231.8,286.353a11.756,11.756,0,0,0-9.443,1.589c-4.758,3.114-3.861,6.95-3.562,9.469s1.46,5.41-.267,7.105-.431,2.638,3.657,1.169,5.085-4.412,5.583-8.274,2.567-4.211,4.032-4.859S231.8,286.353,231.8,286.353Z" transform="translate(-217.779 -285.98)" fill="#266dd3" stroke="#35140c" stroke-linecap="round" stroke-linejoin="round" stroke-width="2"/>
                    <path id="Path_135" data-name="Path 135" d="M242.987,286.389a10.122,10.122,0,0,1,9.073,2.211c4.288,3.689,4.012,8.543,5.895,11.333s4.041,3.294,2.58,4.519-6.979,1.524-11.964-2.428-3.789-9.023-5.583-10.932Z" transform="translate(-225.424 -286.015)" fill="#266dd3" stroke="#35140c" stroke-linecap="round" stroke-linejoin="round" stroke-width="2"/>
                    <path id="Path_136" data-name="Path 136" d="M248.2,289.831a7.744,7.744,0,0,1,6.662,4.885c2.172,4.884,2.081,8.253,4.666,9.561a8.675,8.675,0,0,1-4.666-5.7C253.607,294.2,251.321,291.286,248.2,289.831Z" transform="translate(-227.006 -287.148)" fill="#fff"/>
                    <path id="Path_137" data-name="Path 137" d="M222.83,291.487s1.9-2.777,7.011-2.825a3.181,3.181,0,0,1,0,2.825s-.262-1.45-.79-1.861C229.051,289.626,226.831,288.985,222.83,291.487Z" transform="translate(-219.311 -286.793)" fill="#fff"/>
                  </g>
                  <g id="Group_16029" data-name="Group 16029" transform="translate(11.508)">
                    <path id="Path_138" data-name="Path 138" d="M237.859,282.82c3.991-.1,4.77,3.975,4.18,7.322a4.532,4.532,0,0,1-6.923,2.848c-2.142-1.7.645-2.612.2-4.9S233.971,282.92,237.859,282.82Z" transform="translate(-234.297 -282.818)" fill="#23123a" stroke="#35140c" stroke-linecap="round" stroke-linejoin="round" stroke-width="2"/>
                    <path id="Path_139" data-name="Path 139" d="M237.9,284.743s3.189-.9,3.971,2.224-.425,4.558-.425,4.558S242.763,285.525,237.9,284.743Z" transform="translate(-235.389 -283.366)" fill="#fff"/>
                  </g>
                </g>
              </g>
              <g id="Group_16033" data-name="Group 16033" transform="translate(84.595 62.4)">
                <path id="Path_140" data-name="Path 140" d="M287.012,179.78s5.342-3.077,8.825,1.481-.929,15.824-9.406,12.339C286.432,193.6,287.129,185.005,287.012,179.78Z" transform="translate(-286.432 -178.764)" fill="#ffbd8b" stroke="#35140c" stroke-linecap="round" stroke-linejoin="round" stroke-width="1.5"/>
                <path id="Path_141" data-name="Path 141" d="M292.557,180.914s3.824,1,4.952,6.58C297.509,187.494,299.037,180.615,292.557,180.914Z" transform="translate(-288.29 -179.413)" fill="#fff"/>
                <g id="Group_16032" data-name="Group 16032" transform="translate(3.367 3.222)">
                  <path id="Path_142" data-name="Path 142" d="M291.265,183.388s3.789.082,4.645,4.525" transform="translate(-291.265 -183.388)" fill="none" stroke="#35140c" stroke-linecap="round" stroke-linejoin="round" stroke-width="1"/>
                  <path id="Path_143" data-name="Path 143" d="M291.265,190.487a11.726,11.726,0,0,0,2.871-5.369" transform="translate(-291.265 -183.913)" fill="none" stroke="#35140c" stroke-linecap="round" stroke-linejoin="round" stroke-width="1"/>
                </g>
              </g>
              <g id="Group_16034" data-name="Group 16034" transform="translate(9.244 36.705)">
                <path id="Path_144" data-name="Path 144" d="M254.792,179.159a54.987,54.987,0,0,1-2.02,10.611c-4.083,13.67-13.607,22.595-28.865,23.068-.286.007-.578.021-.864.021-8.674.16-16.707-1.345-23.006-5.616-7.176-4.87-12.1-13.335-13.175-27.04,0,0-6.967.815-8.242-5.574s1.157-11.377,5.8-11.377a6.047,6.047,0,0,1,5.922,3.6,10.668,10.668,0,0,0,5.358-3.672c2.627-3.121,5.1-8.82,4.4-19.09,0,0,32.864,9.754,51.327-2.209C251.427,141.885,256.652,159.658,254.792,179.159Z" transform="translate(-178.281 -141.885)" fill="#ffbd8b" stroke="#35140c" stroke-linecap="round" stroke-linejoin="round" stroke-width="1.5"/>
                <path id="Path_145" data-name="Path 145" d="M256.507,199.042c-4.083,13.67-13.607,22.595-28.865,23.068-.286.007-.578.021-.864.021-8.291.125-16.505-1.568-23.006-5.616-7.176-4.87-12.1-13.335-13.175-27.04.815-5.462,1.275-9.287,3.484-13.349a10.668,10.668,0,0,0,5.358-3.672c-1.958,9.65-1.087,20.964,3.7,25.848,5.344,5.455,8.479.348,11.377-6.445s7.316-8.535,19.16-8.653,13.934,8.131,15.307,12.889S253.867,201.668,256.507,199.042Z" transform="translate(-182.016 -151.156)" fill="#87503d" stroke="#35140c" stroke-linecap="round" stroke-linejoin="round" stroke-width="2"/>
                <path id="Path_146" data-name="Path 146" d="M257.765,231.123s11.386-3.121,15.68-14.6A46.552,46.552,0,0,1,257.765,231.123Z" transform="translate(-202.387 -164.523)" fill="#fff"/>
                <path id="Path_147" data-name="Path 147" d="M281.626,149.8s5.453,13.749,2.489,33.157C284.115,182.955,283.822,158.871,281.626,149.8Z" transform="translate(-209.624 -144.285)" fill="#fff"/>
                <path id="Path_148" data-name="Path 148" d="M257.765,190.792s4.8.4,7.093,4.088a24.106,24.106,0,0,1,2.99,7.261S264.821,192.729,257.765,190.792Z" transform="translate(-202.387 -156.718)" fill="#fff"/>
              </g>
              <g id="Group_16042" data-name="Group 16042" transform="translate(12.136 43.907)">
                <g id="Group_16035" data-name="Group 16035" transform="translate(0 18.579)">
                  <path id="Path_149" data-name="Path 149" d="M182.432,185.158s1.063-5.071,5.671-6.27" transform="translate(-182.432 -178.888)" fill="none" stroke="#35140c" stroke-linecap="round" stroke-linejoin="round" stroke-width="1"/>
                  <path id="Path_150" data-name="Path 150" d="M187.921,186.208a9.038,9.038,0,0,1-2.7-3.861" transform="translate(-183.277 -179.937)" fill="none" stroke="#35140c" stroke-linecap="round" stroke-linejoin="round" stroke-width="1"/>
                </g>
                <g id="Group_16041" data-name="Group 16041" transform="translate(3.293)">
                  <path id="Path_151" data-name="Path 151" d="M248.432,160.722s2.09,1.625,3.251,6.851,2.206,6.967,3.135,5.922,3.252-2.9,4.3-.465-1.161,6.5-5.922,4.877" transform="translate(-205.741 -154.8)" fill="none" stroke="#35140c" stroke-linecap="round" stroke-linejoin="round" stroke-width="2"/>
                  <g id="Group_16037" data-name="Group 16037" transform="translate(26.827 5.922)">
                    <g id="Group_16036" data-name="Group 16036">
                      <path id="Path_152" data-name="Path 152" d="M227.414,164.752a50.105,50.105,0,0,1,6.21-.307,1.87,1.87,0,0,0,1.93-1.988l0-.055a1.85,1.85,0,0,0-1.774-1.662,21.242,21.242,0,0,0-6.969.867,1.609,1.609,0,0,0-1.138,1.444l0,.037A1.59,1.59,0,0,0,227.414,164.752Z" transform="translate(-225.663 -160.721)" fill="#633827"/>
                      <path id="Path_153" data-name="Path 153" d="M272.587,164.752a40.537,40.537,0,0,0-5.583-.307,1.789,1.789,0,0,1-1.734-1.988l0-.055a1.75,1.75,0,0,1,1.6-1.662,17.275,17.275,0,0,1,6.265.867,1.586,1.586,0,0,1,1.023,1.444v.037A1.506,1.506,0,0,1,272.587,164.752Z" transform="translate(-237.674 -160.721)" fill="#633827"/>
                    </g>
                  </g>
                  <g id="Group_16038" data-name="Group 16038" transform="translate(18.77 19.508)" opacity="0.43">
                    <ellipse id="Ellipse_4" data-name="Ellipse 4" cx="5.69" cy="3.019" rx="5.69" ry="3.019" fill="#ef3157"/>
                    <ellipse id="Ellipse_5" data-name="Ellipse 5" cx="5.033" cy="2.671" rx="5.033" ry="2.671" transform="translate(42.014)" fill="#ef3157"/>
                  </g>
                  <g id="Group_16039" data-name="Group 16039" transform="translate(31.775 12.773)">
                    <path id="Path_154" data-name="Path 154" d="M235.784,173.051c0,1.379-.676,2.5-1.509,2.5s-1.51-1.118-1.51-2.5.676-2.5,1.51-2.5S235.784,171.673,235.784,173.051Z" transform="translate(-232.765 -170.555)" fill="#42241a"/>
                    <path id="Path_155" data-name="Path 155" d="M273.951,173.051c0,1.379-.676,2.5-1.51,2.5s-1.509-1.118-1.509-2.5.676-2.5,1.509-2.5S273.951,171.673,273.951,173.051Z" transform="translate(-244.34 -170.555)" fill="#42241a"/>
                  </g>
                  <path id="Path_156" data-name="Path 156" d="M235.765,192.722a18.764,18.764,0,0,0,14.294,6.5" transform="translate(-201.9 -164.505)" fill="none" stroke="#35140c" stroke-linecap="round" stroke-linejoin="round" stroke-width="1"/>
                  <g id="Group_16040" data-name="Group 16040">
                    <ellipse id="Ellipse_6" data-name="Ellipse 6" cx="12.193" cy="13.12" rx="12.193" ry="13.12" transform="translate(17.492)" fill="none" stroke="#35140c" stroke-linecap="round" stroke-linejoin="round" stroke-width="2"/>
                    <ellipse id="Ellipse_7" data-name="Ellipse 7" cx="11.67" cy="13.12" rx="11.67" ry="13.12" transform="translate(49.193)" fill="none" stroke="#35140c" stroke-linecap="round" stroke-linejoin="round" stroke-width="1.957"/>
                    <path id="Path_157" data-name="Path 157" d="M247.265,170.535s4.412-2.673,7.316,0" transform="translate(-205.387 -157.416)" fill="none" stroke="#35140c" stroke-linecap="round" stroke-linejoin="round" stroke-width="1.957"/>
                    <line id="Line_1" data-name="Line 1" x1="17.658" transform="translate(0 15.27)" fill="none" stroke="#35140c" stroke-linecap="round" stroke-linejoin="round" stroke-width="1.957"/>
                  </g>
                </g>
              </g>
            </g>
          </g>
        </g>
      </g>
      <g id="Group_16071" data-name="Group 16071" transform="translate(73.207 69.044)">
        <g id="Group_16050" data-name="Group 16050" transform="translate(0.75 141.62)">
          <g id="Group_16047" data-name="Group 16047" transform="translate(16.27)">
            <path id="Path_158" data-name="Path 158" d="M189.958,373.558s-.747,14.518,0,16.962,24.676,6.33,29.262,5.377,2.029-4.4-4.657-6.111l1.617-14.176Z" transform="translate(-138.909 -303.018)" fill="#633827" stroke="#35140c" stroke-linecap="round" stroke-linejoin="round" stroke-width="2"/>
            <path id="Path_159" data-name="Path 159" d="M118.6,272.312s-3.982,5.964,0,15.569,15.45,11.269,26.648,12.942,16.907-.736,19.893,4.807,1.991,28.275,0,39.762c0,0,15.565,5.726,32,4.456,0,0,5.838-40.108-2.783-55.9s-39.794-19.536-39.794-19.536S134.53,276.956,118.6,272.312Z" transform="translate(-116.832 -272.312)" fill="#765767" stroke="#35140c" stroke-linecap="round" stroke-linejoin="round" stroke-width="2"/>
            <path id="Path_160" data-name="Path 160" d="M205.605,289.52s10.745,2.956,15.414,15.868,2.105,38.085,2.105,38.085.545-23.418-2.105-32.516S212.487,293.939,205.605,289.52Z" transform="translate(-143.755 -277.531)" fill="#fff"/>
          </g>
          <g id="Group_16049" data-name="Group 16049" transform="translate(0 0.924)">
            <path id="Path_161" data-name="Path 161" d="M166.6,376.732s-.747,14.783,0,17.272,24.676,6.445,29.262,5.475,2.029-4.48-4.657-6.222l1.617-14.435Z" transform="translate(-115.556 -304.905)" fill="#633827" stroke="#35140c" stroke-linecap="round" stroke-linejoin="round" stroke-width="2"/>
            <path id="Path_162" data-name="Path 162" d="M198.814,389.7s-.506,7.632-.438,8.262,4.92,1.253,6.712,2.982a62.418,62.418,0,0,0-8.41-1.646Z" transform="translate(-124.778 -308.836)" fill="#fff"/>
            <path id="Path_163" data-name="Path 163" d="M222.752,386.524s-.506,7.632-.438,8.262,4.92,1.253,6.712,2.982a62.433,62.433,0,0,0-8.411-1.646Z" transform="translate(-132.037 -307.875)" fill="#fff"/>
            <g id="Group_16048" data-name="Group 16048">
              <path id="Path_164" data-name="Path 164" d="M157.512,314.7s5.917-3.039,8.742-5.781,5.811,1.38,4.23,5.236a9.65,9.65,0,0,1-5.034,5.147S158.836,320.567,157.512,314.7Z" transform="translate(-112.899 -284.067)" fill="#ffbd8b" stroke="#35140c" stroke-linecap="round" stroke-linejoin="round" stroke-width="1.5"/>
              <path id="Path_165" data-name="Path 165" d="M95.249,273.638s-3.982,6.072,0,15.853S110.7,300.965,121.9,302.67s16.907-.75,19.893,4.894,1.991,28.791,0,40.488c0,0,15.565,5.83,32,4.538,0,0,5.838-40.84-2.783-56.92s-39.794-19.893-39.794-19.893S111.177,278.367,95.249,273.638Z" transform="translate(-93.479 -273.638)" fill="#765767" stroke="#35140c" stroke-linecap="round" stroke-linejoin="round" stroke-width="2"/>
              <path id="Path_166" data-name="Path 166" d="M178.281,289.52s14.394,3.9,17.753,16.785,3.085,30.089,3.085,30.089-.934-18.577-5.884-30.089A36.834,36.834,0,0,0,178.281,289.52Z" transform="translate(-119.198 -278.455)" fill="#fff"/>
            </g>
          </g>
        </g>
        <g id="Group_16051" data-name="Group 16051" transform="translate(0 80.107)">
          <path id="Path_167" data-name="Path 167" d="M123.866,184.045c21.332.64,22.378,10.076,24.773,27.97s.41,24.455,1.991,33.183-14.665,7.762-29.617,7.656-25.783-3.166-27.9-6.227,1.177-12.714,1.177-25.664S94.109,183.152,123.866,184.045Z" transform="translate(-92.402 -184.021)" fill="#4387e8" stroke="#35140c" stroke-linecap="round" stroke-linejoin="round" stroke-width="2"/>
          <path id="Path_168" data-name="Path 168" d="M169.014,233.479s1.05,2.456,1.144,11.51a106.32,106.32,0,0,0,1.476,16.469,21.087,21.087,0,0,1-2.62-8.446C168.394,247.645,169.22,236.448,169.014,233.479Z" transform="translate(-115.566 -199.021)" fill="#fff"/>
        </g>
        <g id="Group_16066" data-name="Group 16066" transform="translate(5.792)">
          <g id="Group_16052" data-name="Group 16052" transform="translate(13.941 59.05)">
            <path id="Path_169" data-name="Path 169" d="M123.14,153.8s1.369,11.882-2.246,22.122a2.925,2.925,0,0,0,.775,3.146c1.754,1.584,5.287,3.956,11.325,4.824a28.634,28.634,0,0,0,10.764-.178,2.94,2.94,0,0,0,2.193-3.322c-.408-2.616-1.044-7.02-1.435-11.343C144.516,169.046,127.192,171.989,123.14,153.8Z" transform="translate(-120.724 -153.798)" fill="#ffbd8b" stroke="#35140c" stroke-linecap="round" stroke-linejoin="round" stroke-width="1.5"/>
            <path id="Path_170" data-name="Path 170" d="M147.548,175.284a44.886,44.886,0,0,1,0,13.7S152.95,182.242,147.548,175.284Z" transform="translate(-128.859 -160.314)" fill="#fff"/>
          </g>
          <g id="Group_16065" data-name="Group 16065">
            <g id="Group_16053" data-name="Group 16053">
              <path id="Path_171" data-name="Path 171" d="M168.44,102.052c8.069-1.41,15.016-13.091,9.994-22.943s-21.4-13.913-26.821-.736c0,0-.493-9.763-6.774-9.315s-3.723,10.178-7.957,13.5c0,0,1.06-8.252-3.5-10.346s-4.961,2.833-5.56,7.143-2.2,5.143-2.2,5.143a11.248,11.248,0,0,0-11.453,2.408c-5.419,4.926-5.181,9-5.181,9a6.835,6.835,0,0,1-1.924-4.07c-.53-2.956-2.255-2.71-2.747-.863s.445,4.434,2.747,6.282c0,0-3.24-1.478-5.333.739s-.616,3.888,1.355,3.361,2.537-1.76,3.978-1.267a30.383,30.383,0,0,0,2.426,18.639s1.724-2.01,5.172,0c0,0,10.591-2.3,14.779-15.725,0,0,11.77,1.478,21.1-4.434C150.538,98.568,154.848,104.427,168.44,102.052Z" transform="translate(-100.715 -69.044)" fill="#87503d" stroke="#35140c" stroke-linecap="round" stroke-linejoin="round" stroke-width="2"/>
              <path id="Path_172" data-name="Path 172" d="M193.144,74.265s9.422-.013,11.856,9.178-1.823,14.806-7.944,16.97c0,0,8.469-5.78,5.6-14.972S193.144,74.265,193.144,74.265Z" transform="translate(-128.747 -70.627)" fill="#fff"/>
              <path id="Path_173" data-name="Path 173" d="M163.168,72.022s4.1-2.158,6.312,7.917C169.48,79.938,166.689,73.43,163.168,72.022Z" transform="translate(-119.656 -69.888)" fill="#fff"/>
              <path id="Path_174" data-name="Path 174" d="M144.194,76.586s4.728-.42,3.537,8.789C147.731,85.375,147.166,79.082,144.194,76.586Z" transform="translate(-113.901 -71.33)" fill="#fff"/>
              <path id="Path_175" data-name="Path 175" d="M147.784,110.382s6.573,2.855,15.177-3.247A61.273,61.273,0,0,1,147.784,110.382Z" transform="translate(-114.99 -80.596)" fill="#fff"/>
            </g>
            <g id="Group_16056" data-name="Group 16056" transform="translate(6.351 27.56)">
              <path id="Path_176" data-name="Path 176" d="M198.759,135.525s3.6-3.7,6.13,0-1.362,8.763-6.13,9.445Z" transform="translate(-136.801 -116.267)" fill="#ffbd8b" stroke="#35140c" stroke-linecap="round" stroke-linejoin="round" stroke-width="1"/>
              <g id="Group_16054" data-name="Group 16054" transform="translate(63.878 20.242)">
                <path id="Path_177" data-name="Path 177" d="M202.39,137.653s1.654.72,2.238,3.764" transform="translate(-201.78 -137.653)" fill="none" stroke="#35140c" stroke-linecap="round" stroke-linejoin="round" stroke-width="1"/>
                <path id="Path_178" data-name="Path 178" d="M201.515,142.236s1.354.1,2.246-1.882" transform="translate(-201.515 -138.472)" fill="none" stroke="#35140c" stroke-linecap="round" stroke-linejoin="round" stroke-width="1"/>
              </g>
              <path id="Path_179" data-name="Path 179" d="M171.2,114.049s3.5,13.3,2.238,24.943S167.6,157.61,150.577,158.5s-24.714-3.78-28.119-8.548a22.528,22.528,0,0,1-3.893-9.862s-4.864,1.494-7.394-2.2-1.946-12.155,5.838-9.045a22.769,22.769,0,0,0,14.5-16.252,27.53,27.53,0,0,0,21.8-3.989S159.432,116.676,171.2,114.049Z" transform="translate(-109.831 -108.6)" fill="#ffbd8b" stroke="#35140c" stroke-linecap="round" stroke-linejoin="round" stroke-width="1.5"/>
              <path id="Path_180" data-name="Path 180" d="M182.643,167.007s10.329-1.343,11.228-17.209C193.871,149.8,191.909,161.218,182.643,167.007Z" transform="translate(-131.914 -121.095)" fill="#fff"/>
              <g id="Group_16055" data-name="Group 16055" transform="translate(1.924 23.185)">
                <path id="Path_181" data-name="Path 181" d="M112.593,145.195s.876-3.474,3.989-3.312" transform="translate(-112.593 -141.877)" fill="none" stroke="#35140c" stroke-linecap="round" stroke-linejoin="round" stroke-width="1"/>
                <path id="Path_182" data-name="Path 182" d="M117.644,146.343a3.6,3.6,0,0,1-2.831-3.288" transform="translate(-113.266 -142.234)" fill="none" stroke="#35140c" stroke-linecap="round" stroke-linejoin="round" stroke-width="1"/>
              </g>
            </g>
            <g id="Group_16064" data-name="Group 16064" transform="translate(24.214 38.874)">
              <g id="Group_16058" data-name="Group 16058" transform="translate(12.874 5.733)">
                <g id="Group_16057" data-name="Group 16057">
                  <path id="Path_183" data-name="Path 183" d="M156.415,135.279c0,1.221-.552,2.211-1.234,2.211s-1.235-.99-1.235-2.211.552-2.211,1.235-2.211S156.415,134.058,156.415,135.279Z" transform="translate(-153.947 -133.068)" fill="#42241a"/>
                  <path id="Path_184" data-name="Path 184" d="M187.969,135.279c0,1.221-.552,2.211-1.234,2.211s-1.235-.99-1.235-2.211.552-2.211,1.235-2.211S187.969,134.058,187.969,135.279Z" transform="translate(-163.517 -133.068)" fill="#42241a"/>
                </g>
              </g>
              <g id="Group_16059" data-name="Group 16059" transform="translate(11.952 13.533)">
                <path id="Path_185" data-name="Path 185" d="M165.258,155.893a13.959,13.959,0,0,1-4.842-.474,11.611,11.611,0,0,1-5.734-3.337c-2.334-2.578-2.641-5.734-1.136-7.079,2.327-2.076,6.236.759,8.883,1.9,3.616,1.547,8.145.634,8.584,3.72C171.34,152.918,169.292,155.5,165.258,155.893Z" transform="translate(-152.624 -144.263)" fill="#7c302e" stroke="#35140c" stroke-linecap="round" stroke-linejoin="round" stroke-width="1"/>
                <path id="Path_186" data-name="Path 186" d="M166.154,158.784a13.96,13.96,0,0,1-4.842-.474,11.611,11.611,0,0,1-5.734-3.337,8.2,8.2,0,0,1,6.486-.829A6.141,6.141,0,0,1,166.154,158.784Z" transform="translate(-153.52 -147.155)" fill="#ff88ad" stroke="#35140c" stroke-linecap="round" stroke-linejoin="round" stroke-width="1"/>
              </g>
              <g id="Group_16061" data-name="Group 16061" transform="translate(0 11.876)" opacity="0.4">
                <g id="Group_16060" data-name="Group 16060">
                  <ellipse id="Ellipse_8" data-name="Ellipse 8" cx="4.29" cy="2.052" rx="4.29" ry="2.052" fill="#ef3157"/>
                  <path id="Path_187" data-name="Path 187" d="M195.257,143.807c0,1.062-1.8,1.922-4.019,1.922s-4.019-.86-4.019-1.922,1.8-1.922,4.019-1.922S195.257,142.745,195.257,143.807Z" transform="translate(-151.163 -141.885)" fill="#ef3157"/>
                </g>
              </g>
              <path id="Path_188" data-name="Path 188" d="M171.363,128.667a12.946,12.946,0,0,0,.694,9.209s.316.633,1.7-.692,3.47-.631,3.281,1.325-1.942,3.048-4.283,2.565" transform="translate(-146.195 -126.001)" fill="none" stroke="#35140c" stroke-linecap="round" stroke-linejoin="round" stroke-width="1.5"/>
              <g id="Group_16063" data-name="Group 16063" transform="translate(9.616)">
                <g id="Group_16062" data-name="Group 16062">
                  <path id="Path_189" data-name="Path 189" d="M183.462,127.926a10.885,10.885,0,0,1,4.616.266,1.3,1.3,0,0,0,1.639-1.046l.007-.037a1.475,1.475,0,0,0-.837-1.6,9.924,9.924,0,0,0-5.815-.442,1.461,1.461,0,0,0-1.126,1.569c0,.018,0,.037,0,.055A1.359,1.359,0,0,0,183.462,127.926Z" transform="translate(-159.179 -124.84)" fill="#633827"/>
                  <path id="Path_190" data-name="Path 190" d="M155.555,127.926a10.885,10.885,0,0,0-4.616.266,1.3,1.3,0,0,1-1.639-1.046l-.007-.037a1.475,1.475,0,0,1,.837-1.6,9.925,9.925,0,0,1,5.815-.442,1.461,1.461,0,0,1,1.126,1.569c0,.018,0,.037,0,.055A1.359,1.359,0,0,1,155.555,127.926Z" transform="translate(-149.271 -124.84)" fill="#633827"/>
                </g>
              </g>
            </g>
          </g>
        </g>
        <g id="Group_16070" data-name="Group 16070" transform="translate(6.202 84.967)">
          <g id="Group_16068" data-name="Group 16068" transform="translate(34.517 5.854)">
            <path id="Path_191" data-name="Path 191" d="M153.007,202.272s19.293,1.487,27.309,1.893,11.4-.135,12.073-.946,1.758-5.234,4.462-3.361-.947,7.012-.947,7.012a36.335,36.335,0,0,0,5.951,0c3.245-.27,4.263,2.976,1.118,4.463,0,0,2.2.811,0,3.11,0,0,1.046,1.758-1.794,2.84,0,0,1.487,2.029-4.868,2.434s-33.268-.27-45.3-3.381C151.008,216.336,150,208.763,153.007,202.272Z" transform="translate(-150.846 -199.4)" fill="#ffbd8b" stroke="#35140c" stroke-linecap="round" stroke-linejoin="round" stroke-width="1.5"/>
            <g id="Group_16067" data-name="Group 16067" transform="translate(43.777 11.933)">
              <path id="Path_192" data-name="Path 192" d="M222.156,216.527a36.892,36.892,0,0,1-8.058,0" transform="translate(-213.806 -216.527)" fill="none" stroke="#35140c" stroke-linecap="round" stroke-linejoin="round" stroke-width="1"/>
              <path id="Path_193" data-name="Path 193" d="M222.029,220.991a39.6,39.6,0,0,1-8.35,0" transform="translate(-213.679 -217.881)" fill="none" stroke="#35140c" stroke-linecap="round" stroke-linejoin="round" stroke-width="1"/>
              <path id="Path_194" data-name="Path 194" d="M220.235,225.067a22.826,22.826,0,0,1-6.556,0" transform="translate(-213.679 -219.117)" fill="none" stroke="#35140c" stroke-linecap="round" stroke-linejoin="round" stroke-width="1"/>
            </g>
          </g>
          <g id="Group_16069" data-name="Group 16069">
            <path id="Path_195" data-name="Path 195" d="M101.859,199.909c4.1-12.447,13.448-7.493,22.411-8.506,10.454-1.182,11.8.374,13.711,2.654s2.224,16.888,1.235,21.624-19.461,4.251-27.084,2.468C102.371,215.865,100.071,205.334,101.859,199.909Z" transform="translate(-101.304 -190.997)" fill="#266dd3" stroke="#35140c" stroke-linecap="round" stroke-linejoin="round" stroke-width="2"/>
            <path id="Path_196" data-name="Path 196" d="M118.877,194.833a75.573,75.573,0,0,0,11.56,0c6.514-.484,12.057-1.436,11.866,8.639,0,0-.093-6.982-6.026-6.814S123.315,196.805,118.877,194.833Z" transform="translate(-106.633 -192.078)" fill="#fff"/>
            <path id="Path_197" data-name="Path 197" d="M149.964,211.393s1.137,6.93-.086,9.055-6.026,1.82-6.026,1.82a6.807,6.807,0,0,0,4.873-3.668A14.546,14.546,0,0,0,149.964,211.393Z" transform="translate(-114.208 -197.183)" fill="#fff"/>
          </g>
        </g>
      </g>
      <g id="Group_16077" data-name="Group 16077" transform="translate(29.113 220.56)">
        <g id="Group_16075" data-name="Group 16075" transform="translate(75.559 20.844)">
          <path id="Path_198" data-name="Path 198" d="M138.1,351.34s6.339,2.565,21.014,2.422,23.224-2.565,24.791-3.7,1.282-3.7,0-6.127a3.446,3.446,0,0,0,2.707-3.419,5.71,5.71,0,0,0-1.425-4.417,4.414,4.414,0,0,0,1.434-4.416c-.722-2.707-2.716-2.992-2.716-2.992s2.564-1,1.567-4.987-4.575-2.707-10.979-2.137-9.4,1.567-15.094.285c0,0-3.476.833-7.939-4.6a30,30,0,0,1-13.36-.812A289.687,289.687,0,0,0,138.1,351.34Z" transform="translate(-137.564 -316.434)" fill="#ffbd8b" stroke="#35140c" stroke-linecap="round" stroke-linejoin="round" stroke-width="1.5"/>
          <g id="Group_16072" data-name="Group 16072" transform="translate(26.663 12.253)">
            <path id="Path_199" data-name="Path 199" d="M195.513,334.021c-2.121,1.008-14.837,1.959-19.68,1.873" transform="translate(-175.833 -334.021)" fill="none" stroke="#35140c" stroke-linecap="round" stroke-linejoin="round" stroke-width="1"/>
            <path id="Path_200" data-name="Path 200" d="M196.8,344.654c-1.242.952-12.14,2.941-20.962,2.076" transform="translate(-175.833 -337.246)" fill="none" stroke="#35140c" stroke-linecap="round" stroke-linejoin="round" stroke-width="1"/>
            <path id="Path_201" data-name="Path 201" d="M195.513,355.9c-2.468.814-14.318,1.852-19.68.814" transform="translate(-175.833 -340.657)" fill="none" stroke="#35140c" stroke-linecap="round" stroke-linejoin="round" stroke-width="1"/>
          </g>
          <g id="Group_16074" data-name="Group 16074" transform="translate(42.884 6.248)">
            <g id="Group_16073" data-name="Group 16073">
              <path id="Path_202" data-name="Path 202" d="M199.947,330.637a14.853,14.853,0,0,1,0-4.919s1.685-.82,2.414.182.911,3.6,0,4.373A2.988,2.988,0,0,1,199.947,330.637Z" transform="translate(-199.306 -325.401)" fill="#c9885b" stroke="#35140c" stroke-linecap="round" stroke-miterlimit="10" stroke-width="1"/>
              <path id="Path_203" data-name="Path 203" d="M201.467,341.6a13.86,13.86,0,0,1,0-4.586s1.571-.764,2.25.17.849,3.354,0,4.076A2.787,2.787,0,0,1,201.467,341.6Z" transform="translate(-199.771 -328.833)" fill="#c9885b" stroke="#35140c" stroke-linecap="round" stroke-miterlimit="10" stroke-width="1"/>
              <path id="Path_204" data-name="Path 204" d="M202.1,352.038a12.357,12.357,0,0,1,0-4.328s1.571-.721,2.25.16.849,3.166,0,3.847A2.933,2.933,0,0,1,202.1,352.038Z" transform="translate(-199.965 -332.083)" fill="#c9885b" stroke="#35140c" stroke-linecap="round" stroke-miterlimit="10" stroke-width="1"/>
              <path id="Path_205" data-name="Path 205" d="M199.3,362.174a8.938,8.938,0,0,1,0-3.674s1.571-.612,2.25.136.849,2.688,0,3.266A3.4,3.4,0,0,1,199.3,362.174Z" transform="translate(-199.115 -335.368)" fill="#c9885b" stroke="#35140c" stroke-linecap="round" stroke-miterlimit="10" stroke-width="1"/>
            </g>
          </g>
          <path id="Path_206" data-name="Path 206" d="M143.852,363.992s13.634,5.521,31.577,0C175.429,363.992,157.207,365.981,143.852,363.992Z" transform="translate(-139.471 -330.858)" fill="#fff"/>
        </g>
        <g id="Group_16076" data-name="Group 16076">
          <path id="Path_207" data-name="Path 207" d="M109.054,303.937s-3.371,16.549-1.839,45.05c0,0-36.469-.758-60.067-12.484s-22.985-40.84-4.29-48.5S74.73,304.857,109.054,303.937Z" transform="translate(-29.113 -286.516)" fill="#434168"/>
          <path id="Path_208" data-name="Path 208" d="M60.974,290.146c11.918,4.975,25.371,15.5,48.08,14.892,0,0-3.371,16.549-1.839,45.05,0,0-36.469-.758-60.067-12.484-18.869-9.376-22.259-29.87-13.3-41.625" transform="translate(-29.113 -287.617)" fill="none" stroke="#35140c" stroke-linecap="round" stroke-linejoin="round" stroke-width="2"/>
          <path id="Path_209" data-name="Path 209" d="M35.907,295.79a40.526,40.526,0,0,1,6.173-6.27" transform="translate(-31.174 -287.427)" fill="none" stroke="#35140c" stroke-linecap="round" stroke-linejoin="round" stroke-width="2"/>
          <path id="Path_210" data-name="Path 210" d="M101.3,309.3a91.2,91.2,0,0,0,25.8,4.969s-.9,14.437-.539,23.948c0,0-1.777-11.586-2.3-21.262C124.27,316.956,111.505,314.791,101.3,309.3Z" transform="translate(-51.007 -293.427)" fill="#fff"/>
        </g>
      </g>
    </g>
  </g>
</svg>
