<svg xmlns="http://www.w3.org/2000/svg" width="212" height="37.152" viewBox="0 0 212 37.152">
  <g id="Group_16083" data-name="Group 16083" transform="translate(-150 -19.424)">
    <g id="Group_16007" data-name="Group 16007" transform="translate(-10.374 -279.798)">
      <path id="Path_71" data-name="Path 71" d="M274.022,310.395l.227,1.046c.081.236.086.487.144.727.075.924.172,1.847.168,2.777a2.4,2.4,0,0,0-.014.614.459.459,0,0,1-.044.281l-.275,2.08c-.059.2-.073.418-.148.618l-.062.274c-.057.1-.008.24-.1.336l-.069.323a2.131,2.131,0,0,1-.1.332c-.09.391-.277.752-.346,1.15a4.948,4.948,0,0,1-.321.828l-.007,0c-.077.1-.08.235-.155.336a24.192,24.192,0,0,1-3.055,5.144,31.607,31.607,0,0,1-2.823,3.182.643.643,0,0,0-.064.087,1.993,1.993,0,0,1-.507.485l0,0c-.069.141-.216.191-.328.283-.369.292-.734.59-1.108.875a23.549,23.549,0,0,1-2.559,1.691,25.589,25.589,0,0,1-2.589,1.259.846.846,0,0,1-.16.036,3.167,3.167,0,0,0-.342.149l-.05.017c-.074.078-.19.044-.273.1a14.953,14.953,0,0,1-2.19.559c-.217.084-.459.056-.675.144-.531.059-1.056.174-1.592.183a.51.51,0,0,1-.192.019c-.6,0-1.21-.037-1.813.022a.822.822,0,0,1-.145.025,2.591,2.591,0,0,1-.531-.017,6.927,6.927,0,0,1-1-.215l-1.592-.348a.678.678,0,0,0-.247-.073.685.685,0,0,1-.252-.074l-.217-.063a1.119,1.119,0,0,1-.279-.1c-.373-.139-.748-.272-1.117-.42a1.326,1.326,0,0,0-.309-.1,9.83,9.83,0,0,1-2.115-1.089,16.7,16.7,0,0,1-3.107-2.509,1.515,1.515,0,0,1-.129-.142.535.535,0,0,0-.187-.184,15.225,15.225,0,0,1-2.335-3.094,10.862,10.862,0,0,1-.867-1.915.692.692,0,0,0-.105-.3,10.311,10.311,0,0,1-.532-2.57,10.707,10.707,0,0,1,.207-3.216,11.571,11.571,0,0,1,1.573-3.728,14.931,14.931,0,0,1,6.831-5.533.728.728,0,0,0,.353-.133.385.385,0,0,1,.1-.035.655.655,0,0,0,.231-.081.37.37,0,0,1,.068-.027.845.845,0,0,1,.291-.06,4.054,4.054,0,0,1,.4-.109c.459-.143.93-.239,1.4-.338.137-.093.3-.046.449-.095l.541-.07a2.214,2.214,0,0,1,.773-.063c.51,0,1.021-.006,1.531,0a1.67,1.67,0,0,1,.67.062,6.643,6.643,0,0,1,5.117,3.47c.064.088.093.195.151.286a.115.115,0,0,0,.012.046,1.675,1.675,0,0,1,.152.34l.182.649a4.633,4.633,0,0,1,.15.669v.379a3.975,3.975,0,0,0,0,.93,5.065,5.065,0,0,1-.713,2.383,5.693,5.693,0,0,1-2.744,2.418,1.384,1.384,0,0,1-.282.189.842.842,0,0,1-.15.032,1.126,1.126,0,0,0-.4.132.753.753,0,0,1-.156.037,1.494,1.494,0,0,0-.36.1,9.625,9.625,0,0,1-1.57.221,1.094,1.094,0,0,1-1.125-.789,1.725,1.725,0,0,1-.16-.606c-.055-.375-.092-.752-.152-1.126a8.921,8.921,0,0,1-.015-1.02c.009-.655-.018-1.31.011-1.965a3.916,3.916,0,0,0,.034-1.379c-.014.054.03.16-.014.258-.181,0-.112-.171-.168-.257a4.434,4.434,0,0,0-.182-.89.513.513,0,0,0-.089-.3,2.969,2.969,0,0,0-1.3-1.571.451.451,0,0,0-.258-.091,3.078,3.078,0,0,0-1.532.006,1.056,1.056,0,0,0-.277.038.349.349,0,0,0-.2.076.4.4,0,0,1-.065.033,1.357,1.357,0,0,0-.329.144c-.126.045-.233.129-.358.176a.76.76,0,0,0-.188.1,1.207,1.207,0,0,0-.272.179c-.086.063-.174.124-.256.192a4.457,4.457,0,0,0-1.686,2.766,10.055,10.055,0,0,0-.055,3.133c.083.772.268,1.526.412,2.288a.765.765,0,0,0,.085.361.855.855,0,0,1,.075.323.829.829,0,0,0,.093.347c.069.265.178.518.232.787a.5.5,0,0,0,.091.291.488.488,0,0,1,.072.22.488.488,0,0,0,.093.279.519.519,0,0,1,.074.215.715.715,0,0,0,.136.339,1.466,1.466,0,0,1,.17.34,5.648,5.648,0,0,0,.328.6,3.751,3.751,0,0,0,1.858,1.718.554.554,0,0,0,.314.087,8.775,8.775,0,0,0,1.916.266c.1.006.253-.044.266.142a1.474,1.474,0,0,1-.317.017,25.522,25.522,0,0,1,3.49,0c-.191,0-.382,0-.573-.013-.023-.162.111-.14.192-.145.876-.057,1.748-.148,2.615-.287.569-.091,1.124-.245,1.689-.356a.758.758,0,0,0,.373-.094c.73-.251,1.453-.523,2.157-.842a.67.67,0,0,0,.3-.135c.063-.038.123-.079.184-.119a2.085,2.085,0,0,1,.358-.176,5.291,5.291,0,0,0,1.235-.818,10.569,10.569,0,0,0,3.174-4.218.91.91,0,0,0,.035-.133,1.809,1.809,0,0,1,.139-.293l.352-1.142a.612.612,0,0,0,.075-.253.638.638,0,0,1,.073-.3l.017-.105a4.313,4.313,0,0,0,.146-.619c.091-.729.2-1.457.235-2.193.011-.272,0-.545,0-.817-.128-.254.03-.529-.058-.786l-.015-.369c-.08-.161-.042-.343-.093-.509l-.075-.476c-.029-.083-.086-.159-.068-.254a.567.567,0,0,0-.077-.248l-.176-.493c-.059-.082-.051-.191-.106-.275a7.272,7.272,0,0,0-1.191-2.041,2.421,2.421,0,0,1-.505-.618,8.608,8.608,0,0,0-1.751-1.528,15.589,15.589,0,0,0-1.389-.822,1.97,1.97,0,0,0-.287-.151l-.092-.018c-.093-.055-.2-.088-.288-.147a15.429,15.429,0,0,0-1.59-.56,10.416,10.416,0,0,0-2.132-.443,4.27,4.27,0,0,0-.992-.082.566.566,0,0,1-.394-.078l-.755-.094a4.357,4.357,0,0,1,.913-.049,5.287,5.287,0,0,0-.979.047,1.508,1.508,0,0,1-.189.021,20.444,20.444,0,0,0-3.718.247,8.2,8.2,0,0,1-.834.153,5.953,5.953,0,0,0-1.208.226c-.384.076-.762.189-1.142.285a4.075,4.075,0,0,0-.4.142l-.1.016a.762.762,0,0,1-.214.075.413.413,0,0,0-.284.076l-1.478.51c-.1.069-.236.079-.34.151a17.964,17.964,0,0,0-1.764.753c-.4.186-.794.388-1.191.583-.053.041-.12.058-.172.1l-.055.056a3.242,3.242,0,0,1-.786.432c-.493.268-.98.547-1.479.8a4.433,4.433,0,0,1-1.387.475c-.027,0-.055.005-.082.008-.682.056-.979-.333-.78-.99a9.553,9.553,0,0,1,.67-1.393l.081-.166c.091-.034.089-.134.137-.2a.49.49,0,0,1,.04-.064,14.237,14.237,0,0,1,4.212-3.69,5.531,5.531,0,0,1,1.049-.585.451.451,0,0,0,.185-.106,1.713,1.713,0,0,1,.318-.172,1.148,1.148,0,0,0,.28-.159c.043-.023.091-.029.136-.048a1.872,1.872,0,0,0,.235-.085l.056-.008c.1-.055.206-.1.3-.159h0c.1-.079.236-.077.334-.158l0-.006c.111-.058.236-.087.342-.157.18-.006.312-.142.481-.177.1-.071.236-.079.339-.153.537-.19,1.072-.384,1.61-.569.282-.1.57-.18.855-.27a.692.692,0,0,1,.253-.074.655.655,0,0,0,.247-.074l.99-.274c.079-.066.159-.133.271-.069.323.008.613-.16.932-.173.217-.08.453-.069.671-.146q1.18-.149,2.36-.3c.163-.02.327-.032.49-.047a3.143,3.143,0,0,1,.84-.066,8.768,8.768,0,0,1,1.228-.045c.625.031,1.252-.005,1.874.059a2.132,2.132,0,0,1,.677.052l.319.015a.982.982,0,0,0,.308.022c.055.005.106.012.089.088a.9.9,0,0,1-.464-.011l0,.039c.181-.031.363.045.536-.058a2.493,2.493,0,0,1,.755.071,23.264,23.264,0,0,1,3.463.671c.1.075.225.063.335.1l.317.067c.1.072.239.073.345.141l.148.024c.107.065.235.081.342.147l.487.183a2.736,2.736,0,0,0,.289.142l.094.02c.1.049.188.1.285.148a15.52,15.52,0,0,1,2.816,1.711c.075.044.175.059.2.165a2.238,2.238,0,0,0,.591.9.571.571,0,0,0,.511.116c.066.015.134.026.156.106.3.369.613.733.91,1.107a13.25,13.25,0,0,1,1.742,2.923c.058.133.114.267.171.4.069.105.081.235.15.341l.35,1.141C274,310.161,273.965,310.291,274.022,310.395Z" transform="translate(-58.398)" fill="#4387e8"/>
      <path id="Path_72" data-name="Path 72" d="M183.191,368.679a21.361,21.361,0,0,0,2.112,1.85,18.076,18.076,0,0,0,2.611,1.616,2.531,2.531,0,0,1,.6.315l-.1.011c-.291-.087-.6-.054-.891-.147-1.3-.164-2.6-.239-3.9-.3a1.343,1.343,0,0,1-.187-.034,2.167,2.167,0,0,1,1.226.016c.321.008.643,0,.964.005-.316-.01-.633,0-.949-.006a.8.8,0,0,0-.391-.082c-.7.015-1.4-.03-2.091.05l-2.031,0c-.409-.042-.82,0-1.229-.023-.068,0-.2.08-.2-.087.978-.039,1.956,0,2.933-.018-1.23,0-2.46-.005-3.689.032a3.386,3.386,0,0,1-.57.024c-.092.005-1.013-.235-1.065-.216a.3.3,0,0,1-.084.018,3.54,3.54,0,0,1-.606-.432c-.121-.252.021-.425.2-.562a.84.84,0,0,1,.4-.217,2.142,2.142,0,0,1,.246-.118c.159-.06,3.4-.225,3.884-.723.254-.14.549-.18.8-.332a1.217,1.217,0,0,0,.488-.331.431.431,0,0,0,0-.613,1.508,1.508,0,0,0-.789-.523.942.942,0,0,1-.22-.141c-.224-.059-.455-.076-.682-.117a.626.626,0,0,1-.122-.024,5.244,5.244,0,0,0-.8-.194c-.574-.032-1.146-.08-1.715-.164.176-.16.388.019.538-.038a4.776,4.776,0,0,0-1.176.02H175.5c-.447-.05-.9,0-1.343-.024-1.48-.072-2.962-.047-4.443-.058-.187,0-.395.112-.564-.065.056-.073.134-.039.2-.039h3.535c.086-.011.04-.066.056-.033,0,.007,0,.009-.016.015a.538.538,0,0,1-.241.015c-1.144-.007-2.289.021-3.433-.016a.379.379,0,0,0-.228.074.2.2,0,0,1-.2-.025l.005-.015c-.129-.061-.275-.072-.4-.145a.656.656,0,0,1-.541-.542c-.037-.315.191-.488.435-.63.06-.062.158-.048.22-.107a6.687,6.687,0,0,1,1.785-.359c.45-.068.9-.164,1.354-.2a3.69,3.69,0,0,1,.557-.1,15.78,15.78,0,0,0,3.107-.722,4.081,4.081,0,0,0,1.786-1.094,2.215,2.215,0,0,0,.321-.558c.076-.135.03-.3.1-.435a2.267,2.267,0,0,0-.165-1.039c-.061-.089-.089-.2-.15-.285a4.518,4.518,0,0,0-2.407-1.856c-.325-.138-.669-.232-1-.347-.023-.061.04-.1.041-.15-.029-.084-.11-.1-.176-.114a.327.327,0,0,1-.272-.351c-.106.077.006.283-.183.259-.114-.014-.163-.129-.255-.192.027.121.208.195.132.313s-.208-.041-.323-.018c-.056.011-.121-.035-.182-.055-1.075-.213-2.16-.359-3.249-.467-.627-.062-1.256-.1-1.884-.145a.7.7,0,0,1-.321-.052c.132-.077.264-.019.446-.043-.359.017-.666-.02-.976.027-1.017,0-2.032-.06-3.045-.149a2.082,2.082,0,0,1,1.094-.005.673.673,0,0,0,.133.024,10.785,10.785,0,0,1,1.382.036V357.5h-1.354a6.535,6.535,0,0,0-1.947-.034,7.673,7.673,0,0,1-1.876-.19.8.8,0,0,1-.611-.625.267.267,0,0,1,0-.277,1.157,1.157,0,0,1,1.073-.773,9.9,9.9,0,0,1,1.631-.1,4.011,4.011,0,0,0,1.2.013c.957-.066,1.914-.118,2.873-.094.2.01.337.23.562.175.016,0,.013-.009-.011-.017-.1-.032-.274.014-.264-.117s.181-.073.282-.076c.342-.008.685.006,1.021-.018-.24-.031-.5.1-.74-.05a4.373,4.373,0,0,1,.844-.059c1.449-.084,2.9-.115,4.345-.27.291-.066.59-.087.88-.157.887-.087,1.764-.243,2.639-.406a.926.926,0,0,0,.481-.122c.188-.04.352-.148.54-.189a.4.4,0,0,1,.079,0c.28.049.331.345.524.491-.025-.314-.025-.314.374-.21-.116-.078-.277-.1-.331-.254a.381.381,0,0,1,.111-.423,1.908,1.908,0,0,0,.341-.391.493.493,0,0,0-.023-.609,2.7,2.7,0,0,0-1.293-.7.773.773,0,0,0-.367-.079c-.626-.125-1.261-.192-1.89-.294-.291-.047-.584-.005-.873-.053a1.023,1.023,0,0,1-.343-.084c-.073-.093,0-.107.066-.11.134-.007.269,0,.366,0-.157.052-.384-.114-.546.115-.253-.022-.529.087-.747-.13.088-.073.184-.033.277-.038a5.08,5.08,0,0,0-.791.087,4.01,4.01,0,0,1-.892,0c-.326-.057-.659-.053-.987-.094-.1-.013-.219.012-.3-.09.125-.1.125-.1.51-.091a1.949,1.949,0,0,0-.86.091.585.585,0,0,1-.127.024.646.646,0,0,1-.132,0,1.624,1.624,0,0,1-.317-.127,1.55,1.55,0,0,1-.955-.6c-.13-.221-.221-.441,0-.661a1.34,1.34,0,0,1,1.1-.641c.333-.034.671-.01,1.007-.011a14.226,14.226,0,0,0,1.55.023c.085,0,.178-.033.219,0h-.708c-.069,0-.146.037-.2-.037a6.125,6.125,0,0,1,1.112-.069c.644-.026,1.287-.1,1.933-.078a6.482,6.482,0,0,0,1.769-.024,6.194,6.194,0,0,1,.959-.011.858.858,0,0,0,.254-.019c.034-.022-.027-.041,0-.012s.007.021-.012.025a.533.533,0,0,1-.135,0,16.509,16.509,0,0,0-1.828.081c-.1.005-.222.038-.309-.061.884-.085,1.769-.159,2.658-.156.215-.015.41.148.647.074a1.307,1.307,0,0,1-.392-.083,16.559,16.559,0,0,1,2.056-.15,3.6,3.6,0,0,0,.692.012c.036-.024-.017-.056,0-.025.008.014,0,.022-.014.023a.483.483,0,0,1-.313-.025,5.931,5.931,0,0,1,1.19-.134c.729-.039,1.45-.146,2.177-.2a1,1,0,0,1,.51-.1,1.076,1.076,0,0,0,.379.028c.094,0,.211-.045.24.106a.311.311,0,0,1-.115.317c-.068.058-.184.03-.228.13a.34.34,0,0,0,.513-.275c.02-.117-.027-.238.028-.351l2.31-.269c.071-.027.162.033.219-.052l.354-.024c.077-.007.176-.081.2.068l0,0c-.075.032-.164.031-.225.1l-.1.019c-.112.057-.234.09-.344.153a15.523,15.523,0,0,0-4.489,2.8,13.183,13.183,0,0,0-2.621,3.206,11.519,11.519,0,0,0-1.255,3.136,10.706,10.706,0,0,0-.242,3.159,12.32,12.32,0,0,0,.533,2.707c.063.082.06.188.106.276a14.316,14.316,0,0,0,3.1,4.893c.031.033.057.07.086.105A1.957,1.957,0,0,1,183.191,368.679Z" transform="translate(0 -37.504)" fill="#fff"/>
      <path id="Path_73" data-name="Path 73" d="M235.3,313.21l-.323.186c-.052.043-.119.059-.171.1a17.445,17.445,0,0,0-4.523,3.4c-.263.288-.5.6-.747.9-.127-.123-.018-.3-.092-.431a.337.337,0,0,0-.076-.134,1.627,1.627,0,0,0-1.138-.72c-.558-.144-1.13-.209-1.693-.323a.284.284,0,0,1-.2-.471.991.991,0,0,1,.592-.36,15.815,15.815,0,0,1,1.924-.413,14.073,14.073,0,0,1,1.483-.251,6.271,6.271,0,0,0,.677-.148l.106-.02a2.7,2.7,0,0,1,.387-.1l.325-.066c.1-.073.23-.041.333-.1.732-.184,1.426-.478,2.138-.721.109-.062.232-.09.34-.153a3.344,3.344,0,0,1,.6-.224C235.3,313.139,235.306,313.168,235.3,313.21Z" transform="translate(-50.8 -10.741)" fill="#fff"/>
      <path id="Path_74" data-name="Path 74" d="M202.22,323.1a5.872,5.872,0,0,1-.777-.243.865.865,0,0,1-.538-.916.889.889,0,0,1,.643-.767c.112-.055.229-.1.344-.145a5.233,5.233,0,0,1,2.725.154,1.4,1.4,0,0,1,.785.5.563.563,0,0,1-.049.492,1.929,1.929,0,0,1-.987.666.684.684,0,0,1-.253.074.629.629,0,0,0-.247.074l-.546.112A3.114,3.114,0,0,1,202.22,323.1Z" transform="translate(-31.24 -16.723)" fill="#fff"/>
      <path id="Path_75" data-name="Path 75" d="M196.586,405.258c.17-.027.321.073.487.075.1.085.25.052.348.142a.743.743,0,0,1,.427.224c.209.17.189.428-.028.673a2.059,2.059,0,0,1-1.147.583,4.06,4.06,0,0,1-1.874.023c-.633-.152-.957-.671-.7-1.188a.96.96,0,0,1,.659-.477.523.523,0,0,1,.315-.061C195.581,405.229,196.084,405.251,196.586,405.258Z" transform="translate(-25.933 -81.73)" fill="#fff"/>
      <path id="Path_76" data-name="Path 76" d="M174.115,425.3a2.378,2.378,0,0,1,.869.21c.491.244.524.548.093.866a2.724,2.724,0,0,1-1.541.465c-.191.01-.383,0-.574,0a1.307,1.307,0,0,1-.558-.179c-.118-.152-.316-.239-.341-.467a.729.729,0,0,1,.537-.826,2.479,2.479,0,0,1,.289-.063A3.4,3.4,0,0,1,174.115,425.3Z" transform="translate(-9.004 -97.15)" fill="#fff"/>
    </g>
    <text id="Dad_s_Taxi" data-name="Dad’s Taxi" transform="translate(213 25)" fill="#fff" font-size="20" font-family="SamsungSharpSans-Bold, Samsung Sharp Sans" font-weight="700"><tspan x="0" y="20">Dad’s Taxi</tspan></text>
  </g>
</svg>
